<?xml version="1.0" standalone="no"?>
<!DOCTYPE svg PUBLIC "-//W3C//DTD SVG 20010904//EN"
 "http://www.w3.org/TR/2001/REC-SVG-20010904/DTD/svg10.dtd">
<svg version="1.0" xmlns="http://www.w3.org/2000/svg"
 width="1080.000000pt" height="1080.000000pt" viewBox="0 0 1080.000000 1080.000000"
 preserveAspectRatio="xMidYMid meet">
<metadata>
Created by potrace 1.14, written by Peter Selinger 2001-2017
</metadata>
<g transform="translate(0.000000,1080.000000) scale(0.100000,-0.100000)"
fill="#000000" stroke="none">
<path d="M6967 7644 c-1 -2 -45 -6 -97 -9 -52 -4 -135 -11 -185 -17 -49 -5
-115 -11 -145 -14 -30 -3 -60 -10 -65 -14 -6 -5 -35 -12 -65 -16 -30 -3 -68
-12 -85 -19 -16 -7 -61 -19 -100 -25 -38 -7 -89 -21 -112 -31 -23 -11 -51 -19
-63 -19 -11 0 -28 -4 -38 -9 -28 -14 -85 -33 -115 -38 -15 -3 -30 -9 -33 -14
-3 -5 -16 -9 -28 -9 -13 0 -29 -7 -36 -15 -7 -8 -20 -15 -30 -15 -10 0 -23 -7
-30 -14 -6 -8 -33 -22 -60 -31 -27 -9 -54 -23 -60 -31 -7 -7 -20 -14 -29 -14
-9 0 -41 -18 -71 -40 -30 -22 -66 -46 -80 -52 -14 -7 -38 -23 -55 -35 -16 -13
-35 -27 -40 -31 -80 -58 -285 -250 -285 -267 0 -4 -10 -17 -21 -29 -12 -13
-44 -63 -71 -112 -47 -84 -49 -93 -55 -184 -8 -141 11 -210 79 -272 53 -49
122 -91 132 -81 3 4 6 0 6 -7 0 -7 3 -11 6 -7 3 3 17 -6 31 -21 13 -15 22 -21
18 -14 -7 14 21 17 29 3 3 -5 15 -11 26 -14 18 -5 19 -3 8 11 -11 13 -11 14 0
8 7 -4 28 -10 45 -13 18 -3 34 -9 35 -14 8 -20 23 -8 17 14 -4 13 -3 17 2 10
10 -14 52 -14 72 1 12 9 13 8 6 -3 -6 -11 -4 -13 8 -8 10 4 21 -1 27 -11 9
-14 10 -12 7 13 -5 27 -4 28 9 10 8 -10 14 -15 14 -10 0 4 9 0 19 -9 13 -12
21 -14 26 -6 3 6 3 9 -2 8 -4 -2 -9 2 -10 7 -1 6 6 9 17 9 10 -1 18 3 17 9 -1
6 3 11 8 12 6 0 20 6 33 13 12 7 27 10 32 7 5 -3 12 0 16 6 4 7 3 9 -3 6 -16
-10 -24 20 -8 33 10 8 15 8 21 -1 5 -8 3 -9 -7 -4 -12 8 -12 6 0 -8 18 -22 20
-22 16 8 -3 29 3 32 21 8 10 -14 12 -15 11 -3 -2 8 -6 21 -10 27 -6 9 -3 11 9
6 13 -5 15 -3 9 7 -5 9 -4 11 4 6 6 -4 9 -12 6 -17 -4 -5 -1 -9 6 -9 7 0 9 10
7 25 -5 22 -3 23 10 13 13 -11 15 -10 9 5 -6 15 -4 16 16 6 20 -11 21 -11 9 4
-12 14 -11 16 10 12 23 -4 23 -4 3 12 -17 14 -18 15 -2 9 10 -3 28 0 40 6 12
7 25 12 28 11 3 -1 6 5 6 13 0 11 -4 11 -19 -3 -22 -20 -24 -11 -2 12 12 12
19 13 30 4 8 -6 11 -16 7 -22 -4 -6 -1 -7 6 -2 9 5 10 10 2 18 -16 16 -13 27
4 21 10 -4 15 0 15 11 0 10 -5 13 -12 9 -7 -4 -8 -3 -4 5 4 6 12 9 17 6 5 -4
9 -1 9 4 0 6 5 11 11 11 8 0 8 -4 0 -14 -9 -11 -9 -16 1 -22 7 -4 10 -4 6 1
-4 4 -3 14 3 22 6 7 8 13 3 13 -5 0 -2 5 6 11 12 8 10 9 -7 4 -13 -3 -23 -2
-23 3 0 13 29 24 42 15 7 -3 8 -1 4 6 -4 6 -13 11 -19 10 -21 -4 -50 13 -37
21 8 5 7 9 -5 13 -9 4 -14 3 -12 -1 2 -4 -4 -14 -14 -24 -16 -15 -17 -14 -16
29 1 28 -4 48 -14 54 -10 8 -7 8 11 3 23 -6 24 -5 11 10 -12 15 -12 17 0 14 8
-2 13 3 11 11 -3 12 -1 12 13 1 22 -18 45 -21 42 -7 -1 7 7 11 18 9 11 -2 16
1 10 5 -16 13 -16 33 0 39 8 3 13 9 10 14 -5 8 44 5 52 -4 3 -3 14 -1 24 5 15
7 17 14 10 28 -7 13 -6 18 4 18 8 0 12 -4 9 -9 -3 -4 0 -8 5 -8 6 0 11 5 11
10 0 6 4 10 9 10 6 0 8 -10 6 -21 -3 -12 -1 -18 3 -15 4 4 8 12 8 17 1 5 2 12
3 15 0 4 8 1 15 -6 13 -10 14 -7 10 17 -4 27 -4 27 12 8 13 -15 15 -16 11 -3
-8 24 22 32 40 11 10 -12 9 -8 -2 10 -16 28 -16 28 4 18 25 -14 34 -14 26 -1
-3 6 2 10 13 10 10 0 24 10 31 23 6 12 9 14 7 5 -4 -12 -1 -15 10 -11 10 4 12
0 8 -13 -8 -20 -6 -19 14 8 10 12 10 18 1 24 -8 5 -9 3 -4 -6 6 -9 4 -11 -4
-6 -20 13 -3 21 36 17 23 -2 33 1 29 8 -4 6 -3 11 3 11 5 0 12 -6 15 -12 3 -7
4 1 1 17 -3 17 -2 26 2 20 4 -5 13 -11 18 -12 6 -1 19 -5 30 -9 18 -6 18 -5 5
7 -8 8 -13 13 -11 12 2 -2 11 3 19 10 13 10 14 9 8 -2 -6 -9 -5 -12 5 -9 8 3
13 10 12 15 -1 6 9 8 22 5 14 -2 23 -8 20 -11 -2 -4 2 -8 10 -8 13 0 13 3 1
16 -18 21 -10 46 9 28 7 -7 11 -16 8 -20 -3 -5 4 -4 16 2 12 7 25 10 30 7 4
-3 8 1 8 9 0 10 -5 11 -18 4 -12 -6 -20 -5 -25 3 -4 7 -4 10 1 6 4 -4 15 -3
25 2 12 6 24 4 40 -7 13 -9 20 -12 17 -6 -4 6 -4 13 0 16 5 2 3 2 -4 1 -7 -2
-15 0 -17 5 -3 4 8 7 23 7 25 0 27 -2 17 -20 -21 -39 -71 -111 -84 -121 -7 -6
-18 -20 -25 -31 -19 -33 -110 -168 -118 -174 -3 -3 -32 -43 -64 -90 -32 -47
-71 -103 -87 -125 -15 -22 -42 -60 -59 -84 -17 -25 -42 -60 -56 -78 -14 -18
-23 -33 -20 -33 3 0 -8 -14 -24 -31 -16 -17 -29 -35 -29 -41 0 -8 -25 -45 -63
-93 -4 -5 -25 -38 -47 -72 -22 -34 -44 -64 -49 -68 -5 -3 -17 -19 -25 -37 -9
-17 -30 -49 -46 -72 -55 -75 -140 -201 -149 -221 -5 -12 -16 -27 -25 -34 -9
-7 -16 -19 -16 -26 0 -6 -9 -20 -20 -30 -11 -10 -20 -23 -20 -30 0 -6 -11 -22
-25 -35 -14 -13 -25 -28 -25 -33 0 -5 -9 -21 -21 -35 -11 -15 -39 -56 -62 -91
-60 -92 -60 -92 -79 -112 -10 -10 -20 -30 -24 -44 -3 -14 -10 -25 -15 -25 -5
0 -14 -10 -19 -22 -16 -37 -49 -88 -101 -160 -27 -37 -49 -71 -49 -76 0 -4
-12 -24 -26 -43 -14 -19 -32 -47 -39 -64 -19 -38 -37 -67 -52 -80 -11 -9 -38
-57 -81 -140 -8 -16 -19 -32 -23 -35 -6 -5 -15 -21 -69 -125 -11 -22 -38 -69
-60 -104 -22 -34 -40 -69 -40 -76 0 -7 -9 -24 -20 -38 -11 -14 -20 -29 -20
-34 0 -4 -11 -30 -25 -57 -14 -27 -25 -54 -25 -60 0 -5 -9 -28 -20 -51 -24
-50 -37 -191 -30 -316 5 -75 9 -91 34 -124 16 -21 36 -40 45 -42 9 -2 25 -18
36 -34 23 -35 107 -99 150 -114 17 -6 29 -16 28 -21 -2 -14 28 -14 45 -1 10 8
12 7 10 -4 -2 -8 -7 -17 -11 -20 -5 -3 -1 -9 8 -12 9 -4 13 -3 10 2 -3 5 -1
12 5 16 5 3 10 1 10 -4 0 -6 4 -11 10 -11 5 0 7 8 4 18 -5 15 -4 15 6 -1 10
-15 14 -16 28 -5 10 8 13 9 9 1 -5 -7 -1 -12 10 -12 39 -1 52 -5 47 -13 -3 -5
-9 -6 -14 -3 -5 3 -11 1 -15 -4 -3 -6 5 -8 20 -5 16 3 24 0 23 -7 -2 -6 4 -14
12 -16 9 -3 11 -1 5 4 -5 4 -11 17 -12 28 -1 11 0 14 3 7 3 -6 10 -10 14 -7 5
3 12 0 16 -6 5 -8 3 -9 -6 -4 -9 5 -11 4 -6 -4 6 -9 11 -9 24 1 12 10 14 10 8
1 -4 -8 -1 -13 9 -13 9 0 14 4 11 8 -2 4 0 14 5 22 8 12 9 11 7 -5 -2 -14 3
-21 20 -23 12 -2 22 -10 22 -18 0 -8 4 -14 10 -14 16 0 7 24 -15 38 l-20 12
20 -2 c11 -2 28 -14 37 -28 10 -14 18 -20 18 -15 0 6 -5 16 -11 22 -8 8 -7 13
2 18 8 5 10 4 5 -3 -5 -8 0 -12 13 -12 19 0 26 -11 22 -33 -1 -5 3 -6 9 -2 6
3 8 10 5 15 -3 5 -1 11 4 15 5 3 14 -3 20 -12 6 -10 11 -13 11 -8 0 6 -5 16
-11 22 -8 8 -7 13 2 18 8 5 10 4 5 -3 -4 -7 -2 -12 3 -12 6 0 11 5 11 11 0 6
5 9 11 7 13 -4 11 -24 -2 -21 -5 2 -9 -1 -9 -6 0 -5 11 -8 24 -7 13 0 22 6 19
12 -2 6 6 10 19 10 15 -1 22 4 20 13 -3 12 0 12 12 2 16 -14 12 -36 -5 -26 -5
4 -9 2 -9 -3 0 -5 15 -9 33 -9 17 0 26 2 20 5 -7 2 -13 8 -13 13 0 10 32 0 41
-14 4 -6 14 -5 25 2 15 8 16 11 4 12 -8 1 -18 1 -22 0 -5 0 -8 4 -8 10 0 7 7
8 18 4 37 -16 54 -17 61 -7 8 13 69 -4 84 -23 5 -6 7 -4 6 5 -1 8 -1 22 0 30
1 12 3 12 10 2 4 -8 7 -24 5 -38 -1 -13 2 -22 6 -19 5 3 7 12 3 20 -3 8 0 15
6 15 6 0 11 -6 11 -12 0 -9 4 -8 10 2 13 20 12 30 -1 30 -5 0 -7 -5 -3 -12 4
-7 3 -8 -4 -4 -16 10 -15 14 8 26 11 6 20 7 19 3 -3 -20 2 -34 11 -28 6 4 8
10 5 15 -3 4 3 14 13 21 15 12 16 12 4 -2 -10 -14 -10 -18 3 -23 8 -3 15 -2
15 3 0 16 39 19 45 3 3 -8 8 -12 12 -9 3 4 12 2 20 -4 9 -9 13 -8 13 0 0 6 -6
11 -12 11 -9 0 -8 4 2 10 12 8 12 10 1 10 -8 0 -12 2 -9 5 8 8 39 -6 33 -15
-3 -4 2 -11 11 -14 8 -3 13 -2 9 3 -9 16 6 40 26 38 10 -1 19 -5 19 -10 0 -4
5 -5 10 -2 6 3 13 -1 17 -11 6 -15 7 -14 15 5 4 12 12 19 18 16 5 -3 10 -1 10
6 0 7 7 4 15 -7 8 -10 15 -15 15 -10 0 5 7 2 17 -5 15 -13 15 -12 5 7 -9 16
-8 21 3 21 8 0 12 -3 11 -6 -2 -3 9 -6 24 -6 15 0 26 3 24 7 -7 10 34 20 55
13 11 -3 22 -1 26 5 3 6 12 7 18 3 8 -4 7 -1 -1 9 -10 13 -10 18 -1 24 8 5 9
3 4 -6 -5 -8 -3 -11 6 -8 8 3 13 12 11 19 -3 11 -1 12 9 2 7 -7 21 -13 30 -13
10 0 20 -6 22 -12 4 -10 6 -9 6 1 1 10 4 11 14 2 10 -8 14 -7 14 3 0 8 -8 13
-17 11 -9 -2 -23 1 -31 6 -10 6 -7 8 11 5 14 -2 30 0 35 4 19 13 46 20 40 10
-3 -6 -1 -10 4 -10 6 0 11 6 12 13 0 6 4 3 9 -8 8 -19 9 -19 9 2 1 28 15 37
31 18 7 -8 18 -15 24 -15 6 0 4 5 -4 10 -13 8 -13 10 2 10 10 0 16 6 14 13 -1
6 -1 9 1 4 3 -4 10 -4 16 -1 8 5 8 2 0 -7 -19 -19 -16 -33 3 -15 18 19 38 21
28 3 -4 -6 2 -3 14 7 12 11 22 14 22 8 0 -7 5 -12 10 -12 6 0 5 8 -2 19 -11
18 -13 18 -25 3 -12 -15 -13 -14 -3 5 9 20 40 23 40 4 0 -4 7 -8 15 -8 13 0
12 4 -2 21 -14 16 -14 18 -2 8 13 -10 21 -8 42 8 16 13 28 16 32 10 6 -10 -1
-14 -18 -11 -5 1 -6 -3 -2 -9 5 -8 11 -8 19 -1 7 6 16 8 20 4 4 -4 4 0 1 8 -4
12 2 18 23 22 16 3 37 14 46 23 14 13 20 14 29 4 9 -10 9 -11 -2 -5 -10 6 -12
4 -6 -5 5 -8 4 -11 -1 -7 -6 3 -16 1 -24 -4 -12 -7 -11 -8 5 -6 27 4 46 17 41
26 -3 4 8 8 24 9 16 0 32 -4 36 -9 3 -6 12 -3 19 8 11 15 11 21 -2 36 -9 9
-13 20 -10 24 4 3 7 1 7 -5 0 -6 10 -17 23 -23 20 -11 21 -11 8 5 -12 14 -12
16 4 10 11 -5 16 -4 12 3 -3 5 0 10 8 10 11 0 12 -4 3 -14 -6 -7 -8 -16 -4
-20 3 -3 6 -1 6 5 0 7 7 12 16 12 10 0 14 6 11 15 -4 8 -1 17 5 21 6 4 8 3 4
-4 -3 -6 -2 -13 4 -17 9 -5 15 15 11 38 0 4 4 7 10 7 6 0 8 -8 5 -18 -4 -12
-1 -19 8 -19 9 0 12 6 8 16 -4 12 0 11 19 -4 22 -18 22 -18 9 -1 -13 17 -13
19 0 14 8 -3 27 1 42 9 15 7 31 13 35 13 5 0 8 9 8 20 0 11 4 19 10 18 5 -2 9
-10 8 -18 -1 -8 0 -10 3 -3 3 6 17 10 32 8 15 -2 21 -2 15 1 -16 7 -17 34 -2
34 5 0 8 4 5 8 -6 10 24 9 40 0 5 -4 16 -2 24 4 13 8 13 9 -1 5 -9 -3 -16 0
-16 7 0 8 9 11 24 8 12 -2 21 -8 18 -11 -2 -4 2 -8 10 -8 12 0 12 4 -2 20 -17
19 -17 20 4 8 15 -7 24 -8 28 -1 4 6 11 8 16 5 5 -3 6 0 3 8 -8 21 12 30 36
17 19 -10 20 -10 8 9 -6 11 -16 17 -22 14 -5 -4 -6 -1 -1 6 5 9 10 10 18 2 6
-6 17 -11 24 -11 21 0 65 48 57 62 -4 7 -3 8 5 4 16 -10 60 -15 59 -7 -2 18 3
31 13 31 5 0 7 -6 3 -12 -6 -10 -5 -10 8 -1 8 7 19 9 23 5 5 -4 5 -1 0 7 -6
10 -2 12 16 6 13 -3 20 -3 14 2 -13 11 -18 36 -5 28 5 -3 10 -1 10 4 0 6 5 11
11 11 6 0 9 -7 6 -15 -4 -8 -2 -17 4 -20 5 -4 9 -3 8 2 -3 19 2 34 9 29 5 -3
9 1 9 9 0 12 -3 12 -16 2 -14 -10 -14 -10 -4 4 7 9 12 18 10 20 -1 3 6 -4 16
-14 17 -19 17 -19 15 4 -2 13 -7 28 -13 32 -6 5 -4 7 5 4 8 -2 15 -9 15 -15 0
-7 4 -11 10 -9 5 1 9 5 8 9 -2 4 6 12 17 18 11 6 18 16 14 21 -4 7 3 6 16 -1
15 -8 20 -8 16 -1 -10 15 7 14 24 -1 11 -10 11 -9 0 6 -13 18 -13 19 1 14 9
-4 16 -1 16 7 0 7 -7 11 -16 8 -14 -4 -14 -4 -1 6 11 8 17 7 24 -3 7 -10 12
-10 28 6 24 24 23 36 -1 14 -19 -17 -19 -17 -17 1 2 10 7 18 12 18 17 1 55 26
50 33 -2 4 4 8 15 8 22 0 23 -3 7 -20 -14 -13 -21 -16 -39 -16 -5 0 -7 -5 -3
-11 4 -8 9 -7 15 2 5 8 9 10 9 5 0 -5 9 -1 20 9 11 10 20 27 20 37 0 15 3 17
19 8 22 -11 40 4 20 16 -8 5 -9 3 -4 -6 5 -9 4 -11 -4 -6 -9 6 -9 11 0 22 13
16 23 19 14 4 -3 -5 -1 -10 6 -10 6 0 9 8 6 20 -3 11 -1 23 4 26 5 3 9 2 8 -3
-1 -4 -1 -15 1 -23 1 -11 4 -9 9 5 5 12 4 26 -3 34 -9 12 -8 12 11 1 12 -8 19
-19 15 -25 -10 -16 -11 -36 -1 -29 5 3 7 9 4 14 -3 4 2 13 10 20 11 9 12 16 5
25 -8 10 -8 15 1 21 8 4 9 3 5 -4 -4 -7 -3 -12 2 -12 6 0 13 7 16 16 5 14 9
14 23 3 14 -12 16 -12 8 0 -6 11 -4 13 8 8 9 -3 21 1 29 11 11 15 11 16 -3 4
-14 -10 -18 -10 -23 3 -3 9 -2 13 4 10 6 -3 10 -1 10 6 0 7 8 6 24 -4 23 -16
23 -15 12 8 -6 13 -14 21 -18 19 -4 -3 -5 2 -1 12 5 14 7 15 15 1 10 -19 42
-11 34 9 -3 7 7 18 25 26 16 7 29 17 29 21 0 5 -5 5 -12 1 -7 -4 -8 -3 -4 5 4
6 11 9 16 6 5 -3 11 -1 15 5 4 6 11 8 16 5 5 -3 6 1 3 10 -5 12 -10 13 -17 6
-6 -6 -16 -11 -21 -11 -18 1 28 24 52 26 12 2 22 -2 22 -8 0 -6 3 -9 6 -6 3 4
1 15 -4 25 -9 16 -7 19 11 20 12 1 28 -3 37 -10 13 -11 13 -10 1 5 -11 15 -11
19 3 24 9 3 13 11 10 16 -4 7 -10 4 -16 -6 -5 -9 -14 -16 -19 -16 -13 0 21 35
35 36 6 0 18 -4 26 -10 8 -6 12 -6 8 -2 -11 13 12 37 26 29 6 -3 2 4 -9 16
-19 22 -19 23 -1 20 10 -2 21 2 24 10 3 9 0 11 -9 7 -8 -4 -5 1 7 11 11 10 19
25 17 33 -4 13 -3 13 6 0 8 -11 7 -18 -3 -26 -12 -8 -11 -12 7 -24 20 -12 21
-12 8 3 -12 15 -10 18 10 26 13 5 19 10 13 10 -21 1 -23 27 -3 28 11 1 17 -2
14 -7 -3 -5 -1 -11 3 -14 5 -3 9 4 8 15 0 11 -7 23 -14 28 -11 7 -10 9 3 14 9
4 14 3 11 -2 -11 -18 20 -18 42 -1 22 18 22 19 2 25 -27 8 -25 20 2 22 19 2
20 0 8 -8 -12 -9 -12 -10 3 -5 10 3 21 6 24 6 3 0 -5 9 -18 21 -13 11 -17 17
-9 13 29 -16 46 -14 25 3 l-20 16 20 -7 c34 -13 37 -12 41 14 3 23 3 24 -10 7
-8 -10 -17 -14 -20 -9 -3 6 1 13 10 16 8 3 12 10 9 16 -3 6 1 7 9 4 9 -3 16
-10 16 -15 0 -6 10 1 23 13 21 21 22 24 8 35 -10 8 -12 12 -4 13 7 0 10 7 7
15 -7 18 11 20 22 3 4 -7 3 -8 -4 -4 -8 5 -10 2 -6 -8 9 -23 24 -20 19 4 -2
13 2 20 11 20 8 0 12 5 9 10 -4 6 -12 7 -18 3 -7 -4 -6 0 2 10 7 9 10 17 6 17
-4 0 4 9 18 20 14 11 29 20 35 20 5 0 8 11 7 24 -2 14 5 32 16 42 16 14 21 15
36 3 11 -9 14 -10 9 -1 -12 20 4 35 22 20 15 -12 16 -11 3 5 -11 13 -11 17 -1
17 8 0 10 3 7 7 -4 3 -15 -1 -25 -10 -13 -12 -21 -13 -32 -6 -13 9 -12 10 2 6
21 -7 31 3 18 18 -7 8 -1 11 20 9 17 -1 35 5 42 15 11 14 11 14 -3 3 -14 -10
-18 -10 -23 3 -3 9 0 15 9 15 8 0 15 4 15 9 0 6 -9 8 -20 6 -11 -2 -18 0 -15
5 3 4 16 7 30 5 14 -1 23 0 20 3 -9 9 17 32 29 25 6 -3 6 0 -1 7 -11 12 -16
11 -28 -6 -15 -17 -15 -16 -1 11 9 17 24 41 35 55 l20 25 -4 -24 c-2 -13 -1
-21 2 -17 7 7 11 25 15 68 1 15 6 24 10 22 5 -3 6 -9 4 -13 -3 -4 1 -8 9 -8
12 0 12 4 -1 21 -18 27 -18 46 1 20 14 -18 14 -18 8 4 -3 14 -1 22 7 22 8 0
11 9 8 25 -3 13 -2 23 1 21 3 -2 11 2 18 9 10 11 10 15 0 18 -7 3 -4 6 6 6 15
1 16 4 6 24 -12 21 -11 21 6 7 11 -9 16 -10 11 -3 -12 21 -15 52 -6 58 5 3 12
0 16 -6 4 -7 3 -9 -4 -5 -12 7 -10 -19 2 -31 4 -4 6 -1 4 7 -1 8 2 14 8 13 6
-1 11 4 11 12 0 8 -4 12 -9 9 -4 -3 -8 -1 -8 4 0 11 30 26 43 23 5 -1 6 3 2 9
-5 8 -11 7 -21 -1 -11 -9 -14 -9 -14 1 0 9 -4 9 -17 -1 -16 -12 -17 -12 -6 2
7 9 10 19 7 22 -4 4 2 5 12 3 11 -2 26 3 34 12 13 14 13 15 -1 10 -9 -3 -22
-2 -30 4 -11 8 -10 9 4 4 12 -4 17 0 17 14 0 23 3 24 33 9 20 -9 20 -9 -2 9
-18 14 -21 21 -11 27 9 6 11 4 5 -6 -8 -12 -6 -12 8 0 19 15 23 26 6 15 -7 -4
-10 -1 -7 7 3 8 11 13 18 11 11 -3 11 0 0 12 -15 19 -24 21 -14 4 4 -7 3 -9
-1 -5 -5 4 -10 14 -11 22 -2 11 2 12 16 5 13 -7 21 -7 25 0 4 6 1 9 -6 8 -6
-2 -14 3 -16 10 -3 8 2 10 14 6 15 -5 15 -4 3 5 -17 12 -20 31 -7 49 6 8 6 12
-2 12 -6 0 -11 5 -11 11 0 8 5 8 15 -1 8 -7 13 -15 11 -19 -3 -4 0 -13 5 -21
6 -11 8 -5 4 18 -4 25 -2 32 7 26 8 -4 10 -3 5 2 -5 5 -13 9 -18 9 -5 0 -8 5
-7 10 0 6 11 9 22 8 12 -1 15 0 8 3 -6 3 -10 10 -7 15 4 5 -2 6 -12 3 -11 -4
-14 -3 -7 3 14 10 14 43 0 43 -15 0 16 20 32 20 7 0 10 -5 6 -12 -5 -7 -3 -8
6 -3 18 11 -16 36 -38 28 -12 -5 -11 -1 4 13 14 13 21 31 21 59 0 45 5 74 16
92 5 7 -1 21 -13 33 -11 11 -15 20 -9 20 8 0 7 6 -2 17 -11 13 -11 15 -1 9 10
-6 13 -3 11 10 -2 11 0 25 4 32 6 8 2 12 -10 13 -14 0 -14 2 5 9 12 5 22 15
21 22 0 10 -2 10 -6 1 -2 -7 -12 -13 -21 -12 -11 0 -12 2 -4 6 6 2 12 9 12 14
0 6 -4 7 -10 4 -5 -3 -10 -1 -10 6 0 6 8 9 18 7 22 -6 26 18 5 26 -8 3 -11 1
-8 -4 3 -6 1 -10 -4 -10 -14 0 -14 13 0 27 8 8 5 14 -11 23 -16 9 -19 15 -10
25 8 10 7 14 -2 18 -10 4 -10 6 0 6 7 1 12 16 12 39 0 27 3 33 10 22 5 -8 10
-10 10 -4 0 16 -25 35 -35 26 -4 -4 -2 4 5 18 10 18 10 25 1 28 -9 3 -9 7 -1
17 9 10 6 16 -11 25 -12 7 -19 8 -15 2 3 -6 1 -14 -5 -18 -8 -4 -9 -3 -5 4 4
6 -2 20 -12 30 -14 14 -16 21 -6 30 6 6 14 9 16 6 3 -2 5 3 5 11 0 8 -4 12 -8
9 -4 -2 -12 4 -18 13 -6 10 -11 13 -11 8 0 -6 5 -16 11 -22 8 -8 7 -13 -3 -18
-7 -5 -10 -5 -6 0 4 4 2 15 -4 23 -10 11 -8 17 7 29 19 14 19 15 -5 8 -23 -7
-24 -7 -10 10 11 13 12 19 3 22 -7 2 -9 11 -6 19 3 8 1 14 -5 14 -12 0 -11
-18 3 -40 7 -12 6 -13 -7 -3 -8 7 -17 10 -21 7 -3 -3 -2 11 3 31 7 31 6 34 -6
24 -12 -9 -18 -9 -27 0 -9 10 -8 11 6 5 13 -5 16 -2 11 10 -3 8 -11 14 -17 13
-15 -3 -9 35 6 45 9 6 9 8 1 8 -6 0 -19 -10 -27 -22 -16 -22 -16 -22 -7 9 9
34 -8 44 -22 13 -5 -12 -7 -12 -7 2 -1 9 7 22 17 28 14 10 13 11 -10 7 -21 -3
-25 0 -20 12 3 9 1 13 -3 9 -10 -10 -38 29 -31 41 3 5 -2 15 -12 22 -15 13
-16 12 -3 -3 7 -10 9 -18 3 -18 -5 0 -15 14 -21 30 -5 17 -13 30 -16 30 -3 0
-3 -5 1 -12 4 -7 3 -8 -4 -4 -15 9 -16 36 -1 36 5 0 7 5 4 11 -5 6 -11 4 -19
-6 -11 -15 -13 -15 -25 -1 -7 8 -10 20 -6 26 4 6 3 9 -2 8 -12 -4 -83 69 -75
77 4 4 0 5 -8 3 -8 -2 -14 2 -13 9 2 7 -3 10 -10 7 -14 -5 -64 45 -59 59 1 5
-2 6 -7 2 -6 -3 -41 18 -78 47 -37 29 -67 52 -68 50 0 -2 -8 0 -17 3 -10 4
-15 11 -12 16 3 5 2 9 -3 8 -10 -3 -45 14 -98 46 -22 14 -47 27 -55 31 -8 3
-39 17 -68 30 -29 13 -59 24 -67 24 -7 0 -17 5 -20 10 -3 6 -13 10 -22 10 -8
0 -29 6 -46 14 -40 18 -90 32 -142 41 -22 4 -46 12 -53 17 -11 10 -57 20 -222
48 -57 10 -178 24 -315 35 -72 6 -563 14 -568 9z m483 -614 c0 -5 -5 -10 -11
-10 -5 0 -7 5 -4 10 3 6 8 10 11 10 2 0 4 -4 4 -10z m36 -20 c9 0 12 -5 8 -12
-4 -7 -3 -8 5 -4 6 4 9 11 6 16 -3 5 0 12 6 16 7 4 10 3 6 -2 -3 -5 2 -18 10
-29 15 -20 15 -20 9 0 -5 16 -1 21 14 21 11 0 20 -5 20 -11 0 -6 11 -12 25
-13 14 -1 25 3 25 8 0 5 -6 7 -14 4 -8 -3 -17 0 -22 7 -5 8 -3 10 6 4 7 -4 16
-2 20 5 6 9 10 7 15 -9 3 -11 12 -22 18 -22 14 -1 29 -5 40 -9 18 -7 33 -5 46
4 11 9 13 8 9 -4 -4 -12 4 -15 42 -15 27 0 46 4 43 9 -4 5 -1 6 6 2 6 -4 8
-13 4 -19 -5 -8 -2 -8 9 0 18 15 32 5 18 -12 -7 -9 -5 -17 7 -26 17 -13 17
-13 3 5 -14 18 -13 19 8 14 17 -5 21 -3 15 6 -4 6 -1 4 8 -5 11 -13 19 -15 27
-7 13 13 35 1 26 -14 -5 -7 -1 -9 9 -5 9 3 19 2 22 -3 4 -6 1 -10 -6 -10 -7 0
-9 -3 -6 -6 4 -4 13 -1 22 6 11 9 15 9 15 1 0 -7 4 -10 9 -7 5 3 11 -1 15 -9
3 -8 10 -15 16 -15 6 0 8 5 5 11 -4 6 9 0 28 -12 19 -13 34 -26 32 -29 -2 -3
5 -7 16 -7 11 -1 33 -13 50 -27 17 -14 35 -26 41 -26 6 0 8 -7 5 -14 -4 -10
-1 -13 9 -9 19 7 166 -137 204 -201 41 -70 54 -90 61 -96 6 -5 43 -106 68
-181 18 -56 24 -216 11 -289 -6 -36 -14 -80 -17 -97 -3 -18 -9 -33 -13 -33 -4
0 -10 -15 -13 -34 -5 -29 -94 -223 -129 -281 -21 -33 -42 -67 -58 -90 -8 -12
-28 -42 -44 -66 -16 -24 -35 -48 -42 -52 -8 -4 -14 -12 -14 -17 0 -5 -16 -26
-35 -47 -19 -21 -35 -41 -35 -45 0 -25 -442 -461 -499 -492 -9 -5 -20 -14 -26
-20 -5 -6 -55 -45 -110 -86 -55 -41 -103 -79 -107 -85 -4 -5 -8 -6 -8 -2 0 5
-18 -7 -40 -25 -21 -19 -52 -40 -67 -48 -15 -8 -55 -33 -88 -55 -72 -48 -87
-57 -145 -88 -25 -13 -85 -47 -134 -75 -49 -29 -91 -52 -93 -52 -2 0 -47 -21
-101 -46 -53 -25 -106 -49 -117 -54 -11 -4 -36 -15 -57 -24 -20 -9 -43 -16
-51 -16 -9 0 -19 -4 -22 -10 -3 -5 -17 -10 -30 -10 -13 0 -26 -4 -29 -8 -3 -5
-33 -17 -68 -26 -61 -18 -97 -30 -128 -46 -9 -4 -39 -11 -68 -15 -29 -4 -52
-11 -52 -16 0 -5 -15 -9 -34 -9 -19 0 -38 -4 -41 -10 -3 -5 -21 -10 -40 -10
-19 0 -36 -4 -39 -9 -3 -5 -39 -12 -78 -16 -40 -3 -86 -10 -103 -15 -16 -4
-79 -10 -138 -13 -90 -4 -107 -3 -103 9 3 8 1 14 -3 14 -5 0 -11 -5 -13 -12
-2 -6 -9 -9 -16 -7 -13 4 27 54 49 61 9 3 9 10 -1 28 -12 23 -12 24 4 11 9 -8
19 -11 23 -7 3 3 0 6 -7 6 -7 0 -10 3 -7 7 4 3 2 12 -4 19 -8 9 -5 11 10 7 16
-4 21 -1 21 13 0 16 -2 17 -11 4 -9 -13 -10 -13 -6 0 2 8 12 14 21 12 11 -2
20 5 23 17 3 12 11 17 19 14 8 -3 14 -3 14 0 0 3 -7 8 -15 11 -10 4 -19 -2
-25 -17 -8 -21 -9 -21 -7 5 1 15 6 24 11 21 5 -4 6 1 2 12 -7 18 -6 18 14 0
11 -10 23 -15 27 -12 3 4 2 7 -4 7 -5 0 -10 7 -10 15 0 10 9 13 31 11 26 -3
28 -2 13 9 -9 6 -13 16 -9 20 4 5 1 5 -6 1 -7 -4 -10 -11 -7 -16 3 -4 -5 -6
-17 -2 l-22 5 22 8 c14 5 20 15 17 28 -3 16 1 19 20 15 13 -2 27 1 31 7 5 8 3
9 -6 4 -8 -5 -11 -3 -8 6 3 8 14 13 24 12 10 -1 13 0 7 3 -16 7 -17 34 -2 34
8 0 7 6 -2 17 -12 15 -12 16 1 8 24 -15 39 -14 33 1 -3 8 -10 11 -17 8 -6 -4
-4 1 5 10 9 9 25 18 37 19 11 0 18 5 15 9 -2 5 -14 6 -26 2 -20 -6 -20 -6 -4
11 13 12 21 14 31 6 10 -8 12 -4 11 22 -3 39 10 57 35 52 11 -2 19 -1 19 3 -1
4 -1 9 1 12 8 22 8 50 0 45 -5 -3 -10 -1 -10 4 0 6 2 11 4 11 2 0 13 3 23 6
15 5 16 4 3 -6 -13 -10 -13 -11 0 -7 8 2 14 12 12 22 -2 11 1 15 9 9 8 -5 11
-2 7 7 -6 16 16 41 28 31 5 -4 2 1 -5 11 -8 9 -11 20 -7 24 3 3 6 2 6 -4 0 -6
6 -13 13 -16 8 -3 14 1 14 9 0 7 -4 11 -9 8 -7 -4 -5 26 2 46 2 3 2 9 1 13 -1
5 4 5 10 1 9 -5 10 -2 5 11 -5 15 -4 16 9 5 13 -11 18 -11 28 0 9 10 9 11 0 6
-8 -4 -13 -1 -13 8 0 9 5 16 10 16 6 0 9 5 8 11 -2 6 4 14 12 16 13 4 13 3 0
-6 -8 -6 -10 -11 -4 -11 15 0 36 25 27 33 -3 4 1 9 10 13 16 6 12 32 -7 47 -7
6 -5 7 6 4 22 -8 30 3 15 21 -11 13 -9 14 10 2 12 -8 19 -19 16 -25 -4 -5 -2
-7 2 -3 5 5 10 20 11 34 2 20 0 23 -11 14 -10 -8 -15 -8 -21 1 -4 8 -3 9 4 5
6 -4 19 5 28 19 9 14 22 25 28 24 26 -3 33 3 34 29 2 41 7 61 17 69 4 4 5 2 1
-4 -9 -16 20 -17 30 -1 4 6 3 8 -3 5 -18 -11 -23 21 -5 35 11 9 14 10 8 1 -4
-8 -2 -13 5 -13 7 0 9 10 6 25 -3 19 1 28 17 36 19 9 20 9 3 -4 -16 -13 -16
-15 -2 -21 9 -3 13 -2 10 3 -3 5 0 13 6 16 5 4 8 13 5 20 -4 12 20 30 37 27 4
-1 6 1 6 5 -1 5 0 11 1 16 1 4 3 10 4 15 3 16 40 51 49 45 6 -3 7 -1 3 6 -6 9
-11 9 -22 0 -18 -14 -18 -8 0 25 l13 26 10 -23 c8 -18 10 -13 8 26 -2 48 13
70 41 60 6 -2 11 4 11 12 0 9 -6 14 -14 11 -8 -4 -11 -1 -7 5 3 6 18 8 33 5
14 -4 22 -3 16 1 -14 11 -18 43 -6 43 5 0 13 -4 16 -10 8 -13 25 -13 25 0 0 6
-5 9 -12 8 -11 -3 -13 9 -9 42 0 6 6 10 12 10 8 0 8 -4 0 -14 -9 -11 -9 -16 0
-22 8 -4 9 -3 5 5 -4 6 -1 14 8 17 9 3 12 12 9 21 -4 10 -2 14 4 10 6 -4 18 2
28 13 10 12 13 20 7 20 -7 0 -12 -5 -12 -11 0 -5 -5 -7 -12 -3 -7 5 -8 3 -3
-6 5 -8 4 -11 -3 -6 -17 10 -2 36 21 36 20 0 20 0 1 15 -18 14 -18 14 4 10 19
-3 22 -2 12 10 -9 11 -7 16 8 24 11 6 23 7 27 3 4 -4 2 4 -5 18 l-13 25 23
-20 23 -20 -17 27 c-12 18 -14 28 -6 33 6 4 14 4 17 1 4 -3 15 1 25 10 15 14
16 20 5 32 -9 12 -9 16 0 19 7 2 9 12 6 21 -4 14 -3 15 5 2 8 -10 8 -18 0 -27
-6 -7 -7 -13 -3 -13 4 0 14 8 21 17 9 14 10 21 1 32 -10 12 -9 13 2 6 11 -6
13 -4 8 8 -3 8 1 21 8 27 8 7 13 16 10 20 -3 4 2 11 11 14 15 6 15 4 0 -19 -9
-14 -12 -25 -7 -25 5 0 16 18 25 41 11 27 20 38 29 33 6 -4 4 2 -6 13 -14 16
-14 20 -2 20 8 0 12 -4 10 -8 -3 -4 1 -9 8 -12 10 -4 13 2 9 19 -2 13 -8 22
-12 19 -11 -7 -6 22 5 32 4 4 5 3 2 -3 -4 -7 0 -17 8 -24 8 -7 12 -17 8 -23
-3 -6 -1 -7 5 -3 9 5 9 13 1 28 -10 18 -9 20 5 15 9 -4 16 -2 16 3 0 6 -6 10
-12 11 -10 0 -10 2 0 6 19 7 14 23 -5 16 -15 -5 -16 -3 -6 7 10 11 15 11 28 0
11 -9 15 -9 15 -1 0 7 5 9 10 6 16 -10 11 1 -7 16 -14 12 -16 12 -8 0 5 -9 4
-12 -3 -7 -6 4 -8 14 -5 22 3 9 9 12 12 7 10 -14 36 -8 33 7 -11 43 -12 64 -4
52 7 -11 12 -11 24 2 9 8 18 13 21 10 3 -3 4 2 3 13 -2 10 8 25 23 35 14 10
21 18 15 18 -5 0 -15 -5 -20 -10 -7 -7 -11 -6 -11 4 0 8 4 13 9 10 4 -3 8 1 8
9 0 16 38 53 46 44 3 -3 -4 -10 -15 -17 -12 -6 -21 -16 -21 -22 0 -6 11 -1 24
11 16 15 23 32 21 48 -2 18 3 27 16 30 10 3 16 9 13 14 -3 5 -11 6 -17 2 -7
-3 -4 3 6 14 9 11 14 24 10 29 -5 5 5 -2 21 -16 l29 -25 -19 29 -19 29 30 -17
c17 -10 22 -12 13 -3 -20 16 -24 37 -7 37 5 0 8 -4 5 -8 -3 -5 1 -9 9 -9 11 0
12 4 4 14 -11 12 -2 18 24 14 4 0 7 4 7 10 0 6 -6 9 -14 6 -8 -3 -17 0 -19 7
-4 9 1 12 13 9 25 -7 59 54 35 63 -8 3 -15 10 -15 15 0 5 11 2 25 -7 14 -9 25
-14 25 -10 0 16 -3 21 -11 19 -4 -2 -6 4 -3 12 7 17 24 20 24 4 0 -5 5 -7 11
-4 6 5 4 11 -7 19 -12 9 -14 15 -5 20 6 4 9 12 6 17 -3 5 2 6 11 2 16 -6 15
-7 -2 -20 -10 -7 -13 -13 -7 -13 13 0 39 30 27 30 -5 0 0 7 10 15 11 8 15 15
9 15 -7 0 -15 -5 -18 -10 -8 -13 -25 -3 -25 13 0 8 3 8 9 -1 6 -10 10 -10 21
3 10 12 16 13 28 3 9 -7 5 3 -8 22 l-24 35 24 -20 c13 -11 20 -14 16 -7 -4 6
-2 12 3 12 6 0 11 5 11 11 0 5 -4 8 -9 4 -5 -3 -12 -1 -16 4 -3 6 3 8 15 6 25
-5 26 3 3 22 -16 12 -15 13 7 2 14 -7 31 -19 38 -28 11 -14 11 -12 2 7 -6 13
-8 32 -4 45 5 12 9 25 10 30 1 4 3 10 4 15 1 4 2 10 1 15 0 4 4 7 9 7 13 0 13
-13 -1 -27 -7 -7 -6 -12 5 -16 10 -4 13 -1 9 9 -4 10 0 13 13 8 11 -3 15 -2 8
3 -6 4 -13 16 -17 25 -4 13 -2 15 10 11 13 -5 14 -3 4 16 -9 17 -9 21 1 19 7
-2 12 2 11 9 -1 6 8 10 21 9 17 -2 23 1 19 11 -3 8 0 13 8 11 8 -2 12 3 10 12
-2 8 -4 20 -4 27 0 6 -7 9 -16 5 -9 -3 -5 5 9 17 14 12 20 20 15 17 -6 -2 -17
0 -25 6 -12 8 -12 9 3 4 9 -3 17 -1 17 5 0 6 4 8 9 4 5 -3 12 -1 16 4 3 6 -3
8 -13 6 -10 -2 -25 1 -33 7 -11 8 -10 9 4 4 21 -7 21 -3 2 34 -14 27 -14 29 5
35 15 5 19 13 16 28 -3 12 -3 16 0 10 3 -7 12 -13 20 -13z m-43 -3 c4 3 7 2 7
-4 0 -5 -11 -15 -24 -21 -20 -9 -27 -8 -38 6 -12 16 -11 16 6 2 18 -14 19 -13
14 2 -8 20 2 31 17 18 7 -5 15 -7 18 -3z m219 -1 c7 4 8 2 4 -5 -9 -13 -26 -5
-25 12 0 9 2 8 6 -1 2 -6 10 -9 15 -6z m35 -11 c0 -8 -4 -12 -9 -9 -5 3 -6 10
-3 15 9 13 12 11 12 -6z m-267 -35 c0 -5 -5 -10 -11 -10 -5 0 -7 5 -4 10 3 6
8 10 11 10 2 0 4 -4 4 -10z m24 -147 c3 -8 2 -11 -3 -8 -5 3 -12 1 -16 -5 -8
-13 -25 -13 -25 1 0 5 5 7 12 3 7 -5 9 -2 6 8 -4 8 0 15 8 15 7 0 16 -7 18
-14z m-1328 -75 c3 -4 -1 -5 -10 -4 -8 1 -18 5 -22 8 -3 4 1 5 10 4 8 -1 18
-5 22 -8z m-89 -50 c-16 -9 -27 0 -21 17 5 11 9 12 19 2 9 -8 10 -14 2 -19z
m-117 -63 c-7 -9 -15 -13 -17 -11 -6 6 20 36 26 30 2 -2 -2 -10 -9 -19z m3420
-89 c0 -3 -4 -8 -10 -11 -5 -3 -10 -1 -10 4 0 6 5 11 10 11 6 0 10 -2 10 -4z
m-7 -33 c3 -5 -1 -14 -8 -20 -11 -10 -13 -9 -12 7 1 20 12 26 20 13z m-3433
-13 c8 -5 12 -11 10 -14 -3 -2 -14 2 -24 10 -22 15 -10 19 14 4z m-5 -30 c3
-6 -1 -7 -9 -4 -18 7 -21 14 -7 14 6 0 13 -4 16 -10z m3449 -14 c-3 -9 -12
-12 -22 -9 -15 6 -9 11 25 22 1 1 0 -5 -3 -13z m-2187 -73 c-11 -25 -22 -29
-32 -13 -4 6 -1 9 7 8 7 -2 13 4 12 13 -1 9 4 16 11 16 10 0 11 -6 2 -24z
m-47 -53 c0 -5 -4 -10 -10 -10 -5 0 -10 5 -10 10 0 6 5 10 10 10 6 0 10 -4 10
-10z m-1500 -121 c0 -5 -4 -9 -8 -9 -5 0 -9 7 -9 15 0 8 4 12 9 9 4 -3 8 -9 8
-15z m-30 -17 c0 -5 -7 -9 -15 -9 -8 0 -15 4 -15 9 0 4 7 8 15 8 8 0 15 -4 15
-8z m-43 -24 c-3 -8 -6 -5 -6 6 -1 11 2 17 5 13 3 -3 4 -12 1 -19z m-357 2 c0
-5 -2 -10 -4 -10 -3 0 -8 5 -11 10 -3 6 -1 10 4 10 6 0 11 -4 11 -10z m47 -5
c0 -8 -4 -12 -9 -9 -5 3 -6 10 -3 15 9 13 12 11 12 -6z m58 -3 c-3 -3 -11 0
-18 7 -9 10 -8 11 6 5 10 -3 15 -9 12 -12z m228 10 c4 9 6 9 6 1 2 -20 -16
-24 -30 -5 -13 15 -12 16 3 4 13 -10 17 -10 21 0z m3862 -71 c3 -5 0 -13 -6
-17 -7 -4 -9 -3 -5 4 3 6 -2 13 -11 15 -16 4 -16 5 -1 6 9 0 19 -3 23 -8z
m-10 -39 c-3 -3 -11 0 -18 7 -9 10 -8 11 6 5 10 -3 15 -9 12 -12z m-19 -57
c-3 -8 0 -15 6 -15 6 0 9 -3 5 -6 -10 -11 -26 6 -20 21 3 8 7 15 10 15 3 0 3
-7 -1 -15z m-2666 -360 c0 -2 -6 -8 -13 -14 -10 -8 -14 -7 -14 2 0 8 6 14 14
14 7 0 13 -1 13 -2z m2490 -315 c0 -5 -5 -10 -11 -10 -5 0 -7 5 -4 10 3 6 8
10 11 10 2 0 4 -4 4 -10z m-2800 -154 c0 -3 -4 -8 -10 -11 -5 -3 -10 -1 -10 4
0 6 5 11 10 11 6 0 10 -2 10 -4z m-32 -54 c-7 -8 -15 -9 -21 -3 -6 6 -4 15 4
24 18 19 33 -1 17 -21z m-57 -45 c-10 -9 -11 -8 -5 6 3 10 9 15 12 12 3 -3 0
-11 -7 -18z m-84 -162 c-4 -30 -19 -38 -23 -12 -1 9 2 15 7 11 5 -3 9 2 9 10
0 9 2 16 5 16 3 0 4 -11 2 -25z m2708 6 c3 -5 2 -12 -3 -15 -5 -3 -9 1 -9 9 0
17 3 19 12 6z m-2818 -166 c0 -8 -4 -12 -9 -9 -5 3 -6 10 -3 15 9 13 12 11 12
-6z m2733 0 c-7 -8 -17 -12 -23 -8 -6 4 -3 9 9 14 27 11 28 11 14 -6z m-2747
-29 c4 -10 1 -13 -9 -9 -7 3 -14 9 -14 14 0 14 17 10 23 -5z m2637 -101 c0 -2
-6 -8 -13 -14 -10 -8 -14 -7 -14 2 0 8 6 14 14 14 7 0 13 -1 13 -2z m-2760
-75 c0 -5 -5 -10 -11 -10 -5 0 -7 5 -4 10 3 6 8 10 11 10 2 0 4 -4 4 -10z
m2590 -82 c0 7 5 12 11 12 8 0 8 -4 -1 -14 -14 -18 -37 -11 -37 11 0 13 2 13
14 -3 7 -10 13 -12 13 -6z m-2652 -45 c-8 -10 -14 -11 -16 -4 -2 6 -9 8 -14 5
-7 -4 -8 -2 -4 4 4 6 14 8 23 5 12 -5 14 -3 8 7 -5 9 -4 11 4 6 9 -6 9 -11 -1
-23z m2462 -107 c0 -3 -4 -8 -10 -11 -5 -3 -10 -1 -10 4 0 6 5 11 10 11 6 0
10 -2 10 -4z m-120 -106 c0 -5 -5 -10 -11 -10 -5 0 -7 5 -4 10 3 6 8 10 11 10
2 0 4 -4 4 -10z m-2661 -264 c8 -10 9 -16 1 -21 -6 -4 -9 -1 -8 7 2 7 -3 12
-10 10 -8 -1 -11 2 -7 8 8 13 10 13 24 -4z m2281 0 c0 -2 -8 -10 -17 -17 -16
-13 -17 -12 -4 4 13 16 21 21 21 13z m-2320 -46 c0 -5 -2 -10 -4 -10 -3 0 -8
5 -11 10 -3 6 -1 10 4 10 6 0 11 -4 11 -10z m2169 -77 c-6 -7 -15 -10 -20 -7
-13 8 -3 21 15 21 12 0 13 -4 5 -14z m-49 -28 c0 -7 -30 -13 -34 -7 -3 4 4 9
15 9 10 1 19 0 19 -2z m-74 -31 c-4 -28 -36 -39 -55 -18 -15 17 -15 17 1 5 12
-9 22 -10 35 -2 10 6 14 11 10 11 -5 0 -5 5 -2 10 9 15 14 12 11 -6z m-111
-54 c-3 -5 -12 -10 -18 -10 -7 0 -6 4 3 10 19 12 23 12 15 0z m-5 -26 c0 -8
-19 -13 -24 -6 -3 5 1 9 9 9 8 0 15 -2 15 -3z m-217 -97 c3 -8 -1 -14 -8 -14
-7 0 -11 6 -8 14 3 7 6 13 8 13 2 0 5 -6 8 -13z m-46 -16 c8 7 13 8 13 1 0
-14 -28 -23 -35 -11 -4 5 -11 6 -17 3 -7 -5 -8 -2 -3 5 5 9 10 10 18 2 7 -7
14 -7 24 0z m-199 -94 c13 5 14 3 5 -7 -13 -14 -33 -5 -32 13 0 9 2 9 5 0 3
-7 13 -9 22 -6z m-143 -27 c3 -5 1 -10 -4 -10 -6 0 -11 5 -11 10 0 6 2 10 4
10 3 0 8 -4 11 -10z m-100 -40 c-3 -5 -12 -10 -18 -10 -7 0 -6 4 3 10 19 12
23 12 15 0z m-428 -147 c-11 -10 -26 8 -20 23 5 15 7 14 15 -1 6 -9 7 -19 5
-22z m-1322 -3 c3 -5 1 -10 -4 -10 -6 0 -11 5 -11 10 0 6 2 10 4 10 3 0 8 -4
11 -10z m1245 0 c0 -5 -5 -10 -11 -10 -5 0 -7 5 -4 10 3 6 8 10 11 10 2 0 4
-4 4 -10z m-293 -52 c-3 -8 -6 -5 -6 6 -1 11 2 17 5 13 3 -3 4 -12 1 -19z
m-547 -18 c0 -5 -4 -10 -10 -10 -5 0 -10 5 -10 10 0 6 5 10 10 10 6 0 10 -4
10 -10z"/>
<path d="M7785 6950 c3 -4 14 -10 25 -13 11 -3 18 -2 15 3 -3 4 -14 10 -25 13
-11 3 -18 2 -15 -3z"/>
<path d="M7930 6919 c0 -5 5 -7 10 -4 6 3 10 8 10 11 0 2 -4 4 -10 4 -5 0 -10
-5 -10 -11z"/>
<path d="M7475 6859 c-4 -6 -5 -12 -2 -15 2 -3 7 2 10 11 7 17 1 20 -8 4z"/>
<path d="M7412 6757 c-8 -10 -6 -13 11 -14 12 0 16 1 9 4 -6 3 -10 9 -6 14 8
14 -2 11 -14 -4z"/>
<path d="M7056 6241 c-3 -5 1 -11 9 -14 9 -4 12 -1 8 9 -6 16 -10 17 -17 5z"/>
<path d="M6905 6001 c-6 -11 13 -26 22 -17 4 3 0 6 -8 6 -11 0 -11 2 1 10 9 6
10 10 3 10 -6 0 -14 -4 -18 -9z"/>
<path d="M6730 5699 c0 -5 5 -7 10 -4 6 3 10 8 10 11 0 2 -4 4 -10 4 -5 0 -10
-5 -10 -11z"/>
<path d="M6630 5596 c0 -2 8 -10 18 -17 15 -13 16 -12 3 4 -13 16 -21 21 -21
13z"/>
<path d="M6447 5279 c7 -7 15 -10 18 -7 3 3 -2 9 -12 12 -14 6 -15 5 -6 -5z"/>
<path d="M6429 5261 c6 -10 7 -22 3 -26 -4 -5 -1 -5 6 -1 9 5 9 12 2 27 -6 10
-13 19 -16 19 -2 0 0 -8 5 -19z"/>
<path d="M6157 4845 c-4 -8 -3 -16 1 -19 4 -3 9 4 9 15 2 23 -3 25 -10 4z"/>
<path d="M6110 4760 c0 -5 5 -10 11 -10 5 0 7 5 4 10 -3 6 -8 10 -11 10 -2 0
-4 -4 -4 -10z"/>
<path d="M6055 4660 c3 -5 8 -10 11 -10 2 0 4 5 4 10 0 6 -5 10 -11 10 -5 0
-7 -4 -4 -10z"/>
<path d="M6001 4606 c-9 -10 -8 -15 2 -19 8 -3 13 3 14 14 2 23 -1 24 -16 5z"/>
<path d="M5853 4365 c0 -8 4 -12 9 -9 4 3 8 9 8 15 0 5 -4 9 -8 9 -5 0 -9 -7
-9 -15z"/>
<path d="M5790 4276 c0 -3 9 -10 20 -16 11 -6 20 -8 20 -6 0 3 -9 10 -20 16
-11 6 -20 8 -20 6z"/>
<path d="M5766 4222 c-3 -5 1 -9 9 -9 8 0 15 4 15 9 0 4 -4 8 -9 8 -6 0 -12
-4 -15 -8z"/>
<path d="M5707 4153 c-9 -15 17 -23 34 -11 11 8 11 9 -3 5 -9 -3 -18 -1 -21 6
-2 8 -5 8 -10 0z"/>
<path d="M4045 7037 c-11 -8 -54 -19 -96 -26 -43 -7 -94 -21 -115 -32 -21 -10
-44 -19 -51 -19 -7 0 -21 -4 -31 -9 -36 -19 -144 -61 -156 -61 -8 0 -19 -7
-26 -15 -7 -8 -20 -15 -30 -15 -9 0 -25 -9 -34 -19 -10 -11 -29 -22 -43 -25
-26 -7 -57 -25 -190 -114 -46 -30 -83 -59 -83 -64 0 -4 -6 -8 -13 -8 -11 0
-62 -40 -176 -135 -97 -81 -381 -362 -381 -377 0 -4 -19 -27 -42 -52 -23 -26
-46 -54 -52 -64 -27 -45 -57 -89 -76 -110 -11 -13 -20 -32 -20 -41 0 -10 -9
-26 -20 -36 -11 -10 -20 -26 -20 -35 0 -9 -11 -39 -25 -66 -21 -41 -25 -63
-25 -135 0 -83 1 -88 35 -132 33 -43 55 -60 113 -86 12 -6 22 -14 22 -18 0 -5
12 -9 26 -10 15 0 30 -7 34 -13 4 -7 12 -10 17 -7 5 3 20 -4 33 -15 14 -11 20
-17 13 -14 -6 4 -14 3 -17 -2 -2 -4 6 -8 19 -8 15 0 21 5 18 13 -4 9 0 11 11
7 9 -3 13 -11 9 -17 -4 -6 0 -8 11 -4 10 4 19 1 22 -8 4 -8 10 -13 14 -10 5 3
15 -2 23 -10 22 -21 33 -19 14 3 -16 18 -16 19 3 17 11 -1 23 -5 27 -10 5 -4
2 -5 -6 0 -10 6 -12 4 -7 -4 6 -8 12 -9 20 -2 7 6 17 7 21 3 5 -4 5 -2 1 5 -4
8 1 11 14 10 11 -1 20 -5 20 -10 0 -4 5 -5 10 -2 17 10 11 24 -8 20 -11 -2
-19 3 -19 11 0 10 4 11 13 3 8 -6 14 -6 18 0 8 13 36 8 46 -9 6 -9 8 -1 6 23
-2 20 1 34 6 31 5 -3 7 -12 4 -20 -3 -8 -1 -14 4 -14 6 0 10 5 10 11 0 5 6 7
13 3 9 -6 9 -4 -1 8 -9 11 -10 18 -2 23 6 3 8 10 5 15 -3 5 0 12 6 16 7 4 9 3
5 -4 -3 -6 -2 -13 4 -17 5 -3 10 -1 10 6 0 7 7 4 15 -7 15 -18 15 -18 8 0 -4
13 -3 17 5 12 8 -5 10 -1 5 10 -3 10 -2 15 3 12 5 -4 9 8 9 25 0 18 6 32 15
34 12 4 12 3 2 -5 -11 -8 -11 -10 0 -15 11 -4 14 4 12 32 -1 28 4 41 25 59 14
13 27 28 27 33 1 5 2 16 3 25 1 14 3 14 19 -3 9 -10 14 -14 11 -8 -13 23 -18
46 -9 40 9 -6 14 8 11 28 -1 4 8 3 20 -4 13 -6 19 -7 15 -1 -3 6 4 18 16 27
13 8 23 21 23 28 0 6 6 12 14 12 8 0 15 8 17 18 1 9 -2 15 -7 11 -5 -3 -6 -10
-3 -16 4 -6 2 -8 -3 -5 -10 7 -37 -16 -29 -24 2 -2 -8 -13 -22 -23 -14 -11
-22 -15 -19 -9 4 6 4 13 0 16 -5 2 -3 3 3 1 13 -3 60 56 56 69 -1 5 2 6 7 2 6
-3 15 3 21 14 6 13 17 18 28 15 16 -5 16 -5 0 6 -10 6 -18 19 -17 28 0 14 2
13 9 -3 5 -11 9 -16 9 -11 1 5 9 2 18 -5 11 -10 14 -10 9 -2 -12 22 -15 53 -5
53 6 0 7 6 3 13 -6 9 -5 9 8 0 8 -7 19 -9 23 -5 5 4 5 1 0 -7 -5 -9 -4 -12 3
-7 7 4 12 14 12 22 0 8 -4 13 -9 9 -5 -3 -13 0 -17 6 -4 7 -3 9 4 5 6 -3 15 1
20 10 6 11 11 13 16 5 4 -6 2 -11 -4 -11 -6 0 -8 -5 -4 -11 5 -8 10 -6 16 5 5
9 6 21 3 26 -4 7 3 9 19 6 25 -5 41 5 29 18 -3 3 -12 1 -19 -5 -13 -10 -32 6
-20 18 3 4 6 1 6 -6 0 -7 5 -9 10 -6 6 4 8 11 5 16 -3 5 2 6 11 2 12 -5 15 -3
9 6 -6 10 -3 11 14 2 11 -7 21 -10 22 -9 7 28 7 48 0 43 -5 -3 -13 0 -17 6 -4
7 -3 9 4 5 6 -3 14 -2 17 4 5 8 11 8 20 0 18 -15 29 4 21 38 -4 18 -4 22 3 13
7 -10 15 -7 39 18 18 19 33 28 37 22 3 -6 1 -11 -5 -11 -6 0 -8 -4 -5 -10 4
-6 11 -5 19 3 9 8 10 14 4 18 -7 5 -5 14 4 28 14 19 17 20 28 6 11 -13 10 -14
-3 -10 -8 4 -18 2 -22 -4 -4 -7 2 -10 16 -8 20 3 28 17 31 55 2 14 13 5 13
-11 0 -5 6 -11 13 -13 8 -2 9 -1 1 3 -8 4 -3 11 12 20 13 7 17 12 9 11 -9 -2
-17 1 -18 7 -1 5 8 10 21 10 14 0 21 5 19 15 -3 11 1 10 16 -3 13 -12 22 -15
27 -8 6 10 0 15 -17 13 -3 -1 -8 5 -11 12 -4 9 2 12 18 8 12 -2 26 2 30 9 5 8
4 10 -3 5 -8 -5 -10 -1 -5 10 4 11 8 13 11 6 2 -7 8 -12 14 -12 6 0 8 7 5 14
-4 10 -1 13 8 9 8 -3 12 -10 8 -16 -3 -6 -1 -7 6 -3 9 6 9 11 -1 24 -8 10 -9
13 -1 9 6 -4 18 -1 26 8 13 13 16 13 21 -1 3 -8 2 -12 -3 -9 -5 3 -12 2 -15
-3 -2 -4 4 -9 15 -9 15 -1 19 3 14 18 -7 22 5 25 24 7 10 -11 11 -10 6 5 -4
10 -2 17 4 17 6 0 11 -6 11 -12 0 -9 3 -8 9 2 14 21 3 32 -20 19 -12 -6 -23
-8 -26 -6 -4 5 39 22 45 18 2 -1 10 6 18 16 14 17 15 17 9 -3 -3 -14 -1 -21 8
-21 9 0 13 9 11 24 -1 12 3 26 8 30 6 3 8 1 5 -4 -4 -6 0 -14 9 -17 11 -4 15
-2 11 8 -4 10 -1 13 8 10 8 -3 11 -13 9 -22 -4 -13 -3 -13 6 2 10 14 9 20 -1
28 -11 7 -9 8 5 4 14 -5 17 -2 12 9 -4 11 -2 14 6 9 20 -12 65 -9 85 7 16 13
16 11 -2 -16 -10 -16 -24 -39 -29 -50 -13 -24 -80 -108 -116 -146 -14 -14 -43
-47 -65 -74 -22 -27 -45 -53 -51 -59 -5 -6 -34 -38 -64 -71 -86 -97 -384 -415
-505 -539 -113 -116 -300 -318 -338 -363 -66 -80 -352 -356 -482 -464 -22 -19
-56 -50 -75 -69 -19 -19 -67 -62 -105 -95 -39 -34 -88 -76 -109 -95 -72 -64
-340 -334 -416 -419 -41 -47 -80 -89 -85 -95 -6 -6 -28 -33 -50 -61 -22 -27
-49 -57 -60 -67 -25 -19 -60 -87 -74 -143 -19 -72 -9 -183 22 -245 20 -42 56
-93 75 -105 34 -24 93 -55 110 -58 27 -4 43 -17 35 -30 -4 -8 -2 -8 9 1 13 10
17 10 21 -3 4 -8 13 -12 22 -9 13 6 20 -6 16 -28 0 -5 4 -8 9 -8 6 0 10 5 10
11 0 8 6 7 17 -2 9 -8 14 -9 10 -2 -4 6 -1 14 5 17 7 3 1 3 -14 1 -16 -2 -28
0 -28 5 0 5 12 8 28 7 20 -2 27 -8 27 -24 0 -12 4 -25 9 -30 5 -5 6 -3 2 5 -4
6 -3 12 2 12 6 0 8 10 6 23 l-5 22 10 -22 c7 -15 16 -21 26 -17 8 3 12 11 8
18 -4 7 -1 7 9 -1 8 -7 18 -10 21 -6 4 3 7 1 7 -6 0 -7 5 -9 10 -6 6 4 7 11 4
17 -4 7 -2 8 4 4 7 -4 12 -2 12 5 0 7 3 10 6 7 3 -4 0 -17 -7 -30 -11 -22 -11
-22 7 -8 29 23 67 43 60 31 -4 -5 3 -15 14 -21 18 -10 24 -7 21 12 0 4 6 5 14
2 8 -4 13 -9 10 -13 -2 -4 2 -8 10 -8 8 0 12 4 9 9 -3 4 0 8 5 8 6 0 11 5 11
11 0 8 -4 8 -14 0 -10 -9 -16 -7 -27 6 -11 15 -11 16 1 6 11 -10 17 -10 30 2
15 13 17 13 18 0 1 -8 3 -22 4 -30 1 -15 18 -22 18 -7 0 5 7 17 15 28 14 18
14 18 10 -3 -2 -13 0 -23 6 -23 5 0 9 8 9 18 0 27 9 32 36 20 23 -11 29 -21
24 -43 -1 -5 7 -2 18 8 10 9 22 14 27 10 4 -5 5 -2 1 5 -4 7 -1 12 9 12 8 0
18 -7 22 -16 5 -15 7 -15 15 0 11 19 39 21 57 3 11 -10 12 -9 6 1 -4 7 -17 18
-29 23 -17 8 -16 8 8 4 27 -6 28 -5 15 12 -13 16 -12 17 3 4 10 -7 15 -18 11
-23 -3 -6 0 -9 8 -6 8 3 14 10 14 15 0 6 3 14 6 18 4 3 6 -5 5 -17 0 -13 -5
-27 -11 -31 -6 -5 -4 -7 5 -4 8 2 16 9 16 15 3 26 5 26 18 3 11 -20 14 -21 19
-7 4 10 3 15 -3 11 -6 -3 -10 -1 -10 4 0 6 7 11 15 11 8 0 15 -4 15 -9 0 -5 7
-12 16 -15 8 -3 12 -2 9 4 -5 9 9 14 18 8 2 -2 11 3 21 11 14 12 16 12 13 0
-2 -8 -2 -10 1 -6 2 4 11 2 20 -5 14 -10 15 -10 5 2 -23 25 -14 30 20 11 37
-20 57 -17 57 9 0 10 4 21 9 24 4 3 7 -6 5 -19 -1 -14 2 -23 7 -19 5 3 7 10 4
15 -4 5 -2 9 4 9 5 0 12 -6 15 -12 4 -7 4 -3 2 10 -2 12 0 20 5 16 5 -3 9 -11
9 -18 0 -7 7 -13 15 -13 11 0 12 4 3 14 -6 7 -8 16 -4 20 3 3 6 2 6 -4 0 -10
19 -19 44 -21 5 0 13 -6 18 -14 8 -10 9 -10 5 2 -2 8 -10 14 -16 13 -17 -4
-13 23 7 38 15 12 16 12 5 -2 -16 -21 -7 -29 32 -29 17 0 37 -6 45 -12 7 -7 5
1 -5 17 -12 19 -13 26 -4 19 8 -6 24 -10 37 -8 12 2 22 0 22 -4 0 -5 10 -8 23
-7 12 1 29 -3 37 -9 8 -5 12 -6 8 -2 -4 5 -3 14 2 21 7 8 5 12 -5 12 -8 0 -12
-4 -9 -8 7 -12 -38 -1 -50 12 -8 9 -6 9 11 0 15 -7 24 -8 28 -1 4 6 11 8 16 5
5 -4 9 -1 9 6 0 7 6 4 14 -6 8 -11 12 -23 10 -27 -3 -5 -1 -8 4 -8 6 0 12 7
16 15 8 21 7 25 -1 23 -5 -2 -7 -7 -5 -11 1 -5 -2 -6 -8 -2 -8 5 -7 11 1 21 9
11 15 12 26 3 8 -7 12 -18 9 -26 -3 -7 -1 -13 4 -13 6 0 10 9 10 19 0 11 5 23
11 27 7 4 9 0 5 -13 -4 -14 -1 -19 13 -19 14 0 17 4 10 12 -7 8 -6 15 2 20 8
5 9 3 4 -6 -6 -10 -3 -12 13 -8 16 5 22 2 23 -10 0 -14 2 -13 8 2 4 11 15 20
24 22 10 1 15 -2 11 -7 -3 -5 -10 -7 -15 -4 -5 4 -9 -1 -9 -11 0 -13 3 -14 14
-5 14 12 42 11 64 -3 8 -5 18 -4 24 2 6 6 6 12 -3 17 -8 5 -10 4 -5 -3 4 -7 3
-12 -2 -12 -15 0 -24 32 -12 44 8 8 9 6 5 -6 -5 -12 -2 -16 12 -14 10 2 24 -6
31 -18 9 -14 12 -15 8 -3 -3 9 -1 17 5 17 6 0 7 6 3 13 -6 9 -5 9 7 0 11 -9
19 -9 26 -2 8 8 13 7 18 -2 6 -8 4 -10 -5 -4 -9 5 -11 4 -6 -4 10 -15 27 -4
20 13 -3 8 0 17 7 22 8 4 10 3 5 -4 -4 -7 -2 -20 4 -29 11 -17 11 -17 6 0 -4
13 0 20 14 24 11 3 17 10 14 15 -4 6 3 5 15 -1 11 -7 21 -8 21 -4 0 4 5 2 12
-5 9 -9 14 -7 23 5 15 20 39 7 30 -16 -5 -13 -4 -14 7 -3 9 9 10 17 1 31 -9
14 -8 18 3 18 7 0 11 -4 8 -9 -8 -12 10 -10 24 4 7 7 12 8 12 4 0 -5 6 -4 13
2 9 8 17 8 27 0 12 -8 12 -9 -3 -4 -11 4 -16 2 -12 -5 13 -20 30 -2 32 32 0
19 2 35 2 37 1 1 10 -2 20 -8 21 -10 40 3 21 15 -18 11 -12 35 8 29 14 -5 14
-4 2 4 -8 6 -17 9 -21 6 -4 -2 -11 0 -14 6 -4 6 -1 9 6 8 6 -2 14 3 17 11 2 8
0 11 -6 7 -6 -3 -13 -2 -16 3 -4 5 -1 13 5 17 8 5 9 3 4 -6 -6 -9 -4 -11 4 -6
9 6 9 12 -3 24 -19 22 -19 26 4 68 11 19 16 33 10 29 -5 -3 -10 -2 -10 4 0 5
-10 13 -22 17 -19 6 -19 7 -5 16 22 12 22 29 0 22 -11 -4 -14 -2 -8 3 6 4 12
17 13 28 2 11 8 23 14 26 5 3 2 9 -7 13 -9 3 -13 11 -10 17 4 6 0 9 -10 7 -10
-2 -20 3 -22 10 -3 6 0 12 7 12 6 0 8 -5 5 -10 -10 -16 1 -12 15 6 11 12 11
15 -1 12 -9 -2 -13 4 -11 17 2 18 1 18 -8 3 -6 -9 -17 -15 -25 -12 -8 4 -12
10 -9 15 3 5 0 9 -7 9 -7 0 -9 3 -5 7 4 5 14 -1 22 -11 12 -17 14 -17 14 -4 0
9 -9 20 -20 23 -17 5 -25 18 -18 28 4 6 -24 47 -33 47 -6 0 -3 -7 5 -16 23
-23 20 -30 -4 -9 -15 14 -17 21 -9 31 6 8 16 11 22 7 6 -3 7 -1 3 5 -5 9 -14
7 -31 -4 -22 -14 -24 -14 -35 6 -6 12 -9 24 -6 27 9 9 -62 54 -103 66 -43 12
-97 12 -246 -2 -227 -20 -331 -32 -353 -41 -13 -6 -43 -10 -67 -10 -24 0 -47
-4 -50 -10 -9 -15 -55 -8 -55 8 0 12 3 12 15 2 11 -9 19 -10 26 -3 8 8 7 13
-2 18 -8 5 -10 4 -5 -3 10 -17 -3 -15 -20 3 -14 13 -11 15 23 10 27 -3 34 -2
23 5 -8 5 -10 10 -5 10 6 0 3 5 -5 11 -12 8 -10 10 9 5 26 -5 51 8 51 27 0 6
-7 2 -15 -9 -14 -18 -15 -18 -11 6 3 14 5 27 5 29 1 2 7 -1 14 -7 14 -12 42
-11 54 3 4 4 2 5 -4 1 -8 -4 -13 -2 -13 6 0 9 -3 9 -10 -2 -7 -12 -9 -10 -7 7
0 12 6 19 12 15 17 -11 35 -11 42 0 3 6 2 8 -3 5 -6 -3 -16 -1 -24 4 -11 8 -7
9 17 7 18 -3 30 -1 27 3 -2 4 0 11 6 14 8 5 7 11 -1 21 -6 8 -9 17 -5 21 3 3
6 1 6 -5 0 -7 9 -12 20 -12 11 0 20 5 20 11 0 5 -4 8 -9 4 -5 -3 -13 0 -17 6
-4 8 -3 9 5 5 6 -4 14 0 17 8 3 9 11 16 16 16 6 0 6 -6 -1 -14 -9 -11 -9 -16
0 -22 7 -4 9 -3 6 3 -6 10 32 49 44 46 4 -1 5 7 2 17 -6 22 14 53 28 44 13 -8
11 10 -3 26 -11 12 -10 12 2 2 9 -6 26 -10 37 -9 17 1 19 4 11 14 -6 8 -8 16
-4 20 3 3 6 2 6 -4 0 -16 28 -24 36 -11 4 6 3 8 -4 4 -6 -3 -13 -2 -17 4 -3 5
-1 10 5 10 6 0 8 5 5 10 -3 6 1 10 10 10 11 0 15 5 12 14 -9 23 5 27 31 10 13
-9 22 -11 18 -6 -3 6 6 20 20 31 15 12 23 21 19 21 -4 0 -2 6 4 14 9 11 9 16
0 22 -7 4 -9 3 -6 -3 8 -12 -38 -65 -48 -55 -5 4 -5 1 0 -7 6 -10 4 -12 -5 -6
-10 6 -9 11 6 22 10 8 18 19 16 24 -1 5 3 8 10 7 7 -2 12 3 13 10 0 6 3 12 8
12 4 0 14 0 23 0 8 0 13 -4 9 -9 -3 -5 -1 -12 4 -16 14 -8 2 48 -12 58 -8 6
-6 7 5 3 10 -3 20 0 24 5 3 6 15 9 25 6 17 -5 18 -3 3 27 l-16 31 24 -25 c13
-14 20 -21 16 -15 -4 6 -3 17 2 25 5 8 7 17 4 21 -2 4 1 11 7 15 8 5 9 3 4 -6
-6 -10 -4 -12 11 -6 10 4 25 9 33 10 7 1 18 11 24 22 10 18 10 18 -16 1 -15
-10 -27 -13 -27 -8 0 5 9 13 20 16 11 4 17 11 14 17 -4 6 3 5 16 -2 13 -7 20
-8 16 -2 -4 6 1 15 10 20 10 6 15 16 11 25 -4 12 -1 15 14 12 15 -3 19 0 15
11 -4 10 -2 13 7 7 17 -11 38 -13 32 -3 -3 4 2 13 10 20 11 9 12 16 5 25 -8 9
-4 12 15 10 14 -2 23 1 19 6 -3 5 -9 7 -14 4 -4 -3 -14 3 -21 13 -13 15 -12
16 3 4 11 -9 18 -10 23 -2 9 14 28 13 19 -2 -4 -8 -3 -10 2 -5 5 5 9 14 9 20
1 7 7 11 14 9 7 -1 10 2 6 8 -4 6 -16 8 -28 5 -20 -5 -20 -5 -4 5 10 7 21 9
24 7 10 -11 31 18 22 29 -7 8 -4 11 8 10 10 0 17 5 15 12 -1 6 2 12 8 12 13 0
13 -6 -1 -33 l-12 -22 20 20 c11 11 19 23 16 28 -4 7 11 11 37 8 13 -2 13 -1
0 8 -8 6 -24 8 -34 5 -16 -5 -17 -4 -5 9 8 8 19 12 24 9 19 -12 34 -10 28 4
-3 8 -9 12 -13 9 -5 -3 -12 -1 -15 5 -4 6 -3 10 2 9 18 -3 36 1 30 8 -4 3 3
13 14 21 17 12 18 16 8 24 -11 8 -11 9 1 5 8 -2 14 -9 13 -15 -1 -5 5 -9 15
-8 12 2 17 12 17 33 -1 23 3 29 19 29 10 -1 21 6 24 14 5 13 3 13 -14 0 -18
-14 -18 -14 -5 3 11 14 16 15 29 5 13 -11 14 -10 4 9 -8 14 -9 24 -2 28 10 6
11 5 14 -15 0 -5 4 -10 9 -10 4 0 9 0 12 0 3 0 1 9 -4 19 -8 14 -7 22 3 30 7
6 16 8 19 5 3 -3 15 1 27 9 12 8 17 18 12 21 -6 3 -13 -1 -16 -10 -6 -17 -26
-10 -26 9 0 8 3 8 9 -1 7 -11 9 -11 14 2 4 9 12 13 20 10 7 -2 21 4 31 15 10
11 23 18 29 14 6 -3 7 -1 3 5 -4 7 -14 12 -22 12 -8 0 -13 -4 -10 -9 7 -11
-18 -33 -27 -24 -4 3 -7 11 -7 17 0 6 5 4 10 -4 9 -15 11 -13 14 13 0 6 11 13
24 15 12 2 22 8 22 13 0 6 4 8 9 4 5 -3 12 -1 16 5 4 6 11 8 16 5 5 -4 9 -1 9
4 0 6 -4 11 -8 11 -5 0 -9 7 -9 15 0 12 3 12 16 2 12 -10 13 -9 6 2 -6 11 -4
13 8 8 9 -3 19 -1 23 5 4 7 3 8 -4 4 -8 -5 -12 2 -12 20 0 27 1 27 15 8 13
-18 14 -18 9 8 -4 23 -1 26 13 21 16 -6 16 -5 4 10 -12 15 -12 17 4 11 13 -5
16 -4 11 4 -5 8 -1 10 10 5 13 -5 15 -3 9 7 -6 10 -4 12 8 7 10 -3 17 -2 17 4
0 6 5 7 10 4 6 -3 10 -1 10 5 0 7 -6 10 -13 7 -8 -3 -20 -1 -28 5 -12 8 -11 9
2 5 8 -3 21 3 27 14 7 11 19 16 29 13 15 -5 15 -3 -2 11 -16 14 -17 16 -3 13
9 -2 17 1 16 6 0 5 7 13 16 18 9 5 14 13 11 19 -4 5 2 6 11 2 11 -4 15 -3 10
5 -3 6 -1 14 5 18 8 4 9 3 5 -4 -4 -7 -2 -12 3 -12 6 0 11 9 11 21 0 13 -4 18
-12 13 -7 -4 -8 -3 -4 5 4 6 11 9 16 6 5 -3 13 2 18 11 5 9 21 17 35 17 25 0
25 0 9 16 -10 9 -16 15 -14 14 12 -5 29 23 21 34 -7 7 -6 14 2 19 7 4 9 3 5
-4 -3 -6 -1 -14 4 -17 8 -5 5 -14 -7 -28 -12 -15 -13 -18 -2 -10 12 10 18 10
27 1 9 -9 12 -9 12 0 0 7 -4 12 -8 12 -11 0 -9 47 2 57 5 4 6 2 2 -4 -9 -16
10 -17 19 -3 5 8 12 7 23 -2 15 -12 16 -11 4 4 -19 23 -6 43 16 26 15 -11 15
-11 4 4 -10 13 -10 17 0 21 9 4 9 6 1 6 -6 1 -21 -11 -32 -25 -12 -15 -21 -23
-21 -18 1 14 37 54 49 54 6 0 11 5 11 10 0 6 -5 10 -12 10 -6 0 -8 3 -5 6 4 4
14 1 24 -7 14 -12 16 -12 8 0 -6 11 -4 13 8 8 11 -4 14 -2 11 8 -3 8 -13 11
-21 8 -11 -4 -14 -2 -9 5 10 17 49 16 40 0 -4 -8 -3 -10 2 -5 5 5 10 13 10 18
1 5 2 14 3 20 0 5 6 7 11 4 6 -3 10 -1 10 5 0 7 -9 9 -22 6 -13 -3 -17 -3 -10
0 6 3 9 11 6 16 -5 7 -2 8 6 3 10 -6 12 -4 6 11 -6 15 -5 17 5 7 17 -17 26
-16 32 1 4 11 1 13 -11 10 -14 -5 -15 -4 -2 5 8 6 11 11 6 11 -5 0 -3 7 4 15
8 10 17 12 24 6 8 -7 12 -4 13 10 1 11 -2 17 -8 14 -14 -10 -11 5 6 22 13 13
18 13 33 1 15 -12 16 -11 3 5 -7 9 -10 17 -6 17 4 0 1 8 -6 18 -11 14 -11 15
1 5 21 -19 29 -16 23 10 -4 18 -3 19 6 7 9 -12 11 -11 11 8 0 12 -5 22 -12 22
-6 0 -3 7 8 15 10 8 15 15 9 15 -5 0 0 7 12 15 12 8 30 12 40 9 16 -6 16 -5
-2 9 -11 8 -24 13 -29 10 -5 -4 -6 -1 -2 5 5 8 15 8 33 1 27 -10 27 -10 9 10
-10 11 -24 18 -30 14 -6 -4 -5 1 3 10 14 18 26 23 16 8 -3 -5 -1 -12 5 -16 5
-3 10 -1 10 5 0 6 4 8 10 5 6 -3 7 1 4 9 -3 9 -11 16 -18 16 -6 0 -4 5 4 10
11 7 17 5 22 -8 4 -10 7 2 9 31 1 41 3 62 8 96 0 5 9 12 18 15 15 6 15 4 -2
-14 -23 -26 -11 -26 14 -1 11 11 16 21 10 23 -5 2 -10 15 -11 31 -1 15 -7 27
-13 27 -5 1 0 6 13 13 22 13 21 28 -1 23 -7 -2 -9 -1 -4 1 4 3 5 9 2 14 -4 5
0 6 8 3 17 -6 32 27 16 36 -14 10 -14 21 3 31 10 7 8 9 -6 9 -13 0 -16 -5 -12
-16 6 -15 4 -15 -10 -3 -10 8 -12 15 -5 17 6 2 8 9 4 15 -10 16 -11 67 -2 61
4 -2 11 1 15 7 5 8 3 9 -6 4 -9 -6 -10 -2 -5 16 7 23 6 23 -7 5 -12 -15 -17
-16 -23 -6 -5 8 -4 11 2 7 6 -4 13 2 16 13 6 22 -12 22 -31 0 -10 -12 -10 -10
-1 13 7 15 17 27 22 27 6 0 7 3 4 6 -4 4 -14 1 -22 -6 -9 -7 -15 -9 -14 -4 4
15 -23 64 -33 58 -5 -3 -7 0 -6 8 2 7 -3 12 -10 10 -8 -1 -11 2 -8 7 4 5 3 11
-1 14 -5 2 -2 2 5 1 6 -2 12 3 12 11 0 8 -8 12 -20 10 -11 -2 -19 -1 -19 3 3
22 -2 42 -12 42 -5 0 -7 -5 -3 -12 5 -7 3 -8 -5 -4 -9 6 -8 12 4 26 11 12 13
20 5 25 -6 3 -9 1 -8 -6 2 -6 -3 -14 -11 -17 -10 -3 -12 0 -8 12 4 10 3 15 -3
11 -6 -3 -34 17 -63 45 -51 49 -97 80 -121 80 -6 1 -29 9 -51 20 -34 16 -63
19 -195 20 -114 0 -161 -4 -175 -13z m804 -564 c2 -1 -5 -1 -16 0 -11 0 -20 7
-20 14 0 10 4 10 16 1 9 -7 18 -13 20 -15z m-716 -68 c-3 -9 -8 -14 -10 -11
-3 3 -2 9 2 15 9 16 15 13 8 -4z m-1046 -850 c0 -8 -4 -12 -9 -9 -5 3 -6 10
-3 15 9 13 12 11 12 -6z m-17 -29 c0 -2 -7 -7 -16 -10 -8 -3 -12 -2 -9 4 6 10
25 14 25 6z m1004 -244 c3 -5 -1 -9 -9 -9 -8 0 -12 4 -9 9 3 4 7 8 9 8 2 0 6
-4 9 -8z m-30 -64 c-9 -14 -23 2 -17 18 4 12 8 13 14 3 4 -7 5 -17 3 -21z
m-244 -263 c0 -5 -5 -3 -10 5 -5 8 -10 20 -10 25 0 6 5 3 10 -5 5 -8 10 -19
10 -25z m-260 -259 c0 -2 -8 -10 -18 -19 -16 -15 -18 -15 -18 1 0 10 8 19 18
19 10 1 18 0 18 -1z m-100 -76 c-8 -5 -19 -10 -25 -10 -5 0 -3 5 5 10 8 5 20
10 25 10 6 0 3 -5 -5 -10z m-451 -445 c-10 -10 -18 -11 -29 -4 -13 9 -12 10 3
5 11 -3 20 0 24 10 3 8 8 12 11 9 3 -3 -1 -12 -9 -20z m-79 -79 c0 -3 -4 -8
-10 -11 -5 -3 -10 -1 -10 4 0 6 5 11 10 11 6 0 10 -2 10 -4z m-223 -188 c-3
-8 -6 -5 -6 6 -1 11 2 17 5 13 3 -3 4 -12 1 -19z m1058 -228 c3 -5 1 -10 -4
-10 -6 0 -11 5 -11 10 0 6 2 10 4 10 3 0 8 -4 11 -10z m20 -141 c-4 -5 -12 -9
-18 -8 -9 0 -8 2 1 6 6 2 9 10 6 15 -4 7 -2 8 5 4 6 -4 9 -12 6 -17z m-435
-319 c0 -5 -2 -10 -4 -10 -3 0 -8 5 -11 10 -3 6 -1 10 4 10 6 0 11 -4 11 -10z
m-600 -55 c5 3 10 2 10 -4 0 -21 -17 -19 -46 5 -28 24 -28 24 -2 9 15 -9 32
-14 38 -10z m-104 -7 c4 -7 4 -10 -1 -6 -4 4 -17 3 -29 -3 -20 -10 -20 -10 -2
5 24 19 23 19 32 4z m-224 -17 c8 11 9 11 6 1 -4 -16 -22 -18 -24 -2 -2 7 -1
6 3 -1 4 -8 8 -7 15 2z m-288 -27 c3 -8 2 -12 -4 -9 -6 3 -10 10 -10 16 0 14
7 11 14 -7z m226 12 c0 -3 -4 -8 -10 -11 -5 -3 -10 -1 -10 4 0 6 5 11 10 11 6
0 10 -2 10 -4z"/>
<path d="M9106 6922 c-3 -6 -1 -14 5 -17 15 -10 25 3 12 16 -7 7 -13 7 -17 1z"/>
<path d="M6406 6847 c3 -10 9 -15 12 -12 3 3 0 11 -7 18 -10 9 -11 8 -5 -6z"/>
<path d="M9211 6793 c7 -12 15 -20 18 -17 3 2 -3 12 -13 22 -17 16 -18 16 -5
-5z"/>
<path d="M4736 6782 c-4 -7 -3 -12 2 -12 5 0 15 -13 22 -30 13 -32 27 -40 27
-15 0 8 -4 12 -8 10 -10 -7 -20 25 -12 37 3 6 1 8 -5 4 -5 -3 -12 -1 -14 6 -3
9 -6 9 -12 0z"/>
<path d="M5970 6664 l-25 -14 28 3 c15 2 28 7 28 11 1 14 -6 14 -31 0z"/>
<path d="M5875 6600 c-3 -5 -1 -10 4 -10 6 0 11 5 11 10 0 6 -2 10 -4 10 -3 0
-8 -4 -11 -10z"/>
<path d="M4828 6583 c7 -3 16 -2 19 1 4 3 -2 6 -13 5 -11 0 -14 -3 -6 -6z"/>
<path d="M9299 6577 c7 -7 14 -8 21 -1 6 6 2 10 -12 11 -16 2 -18 -1 -9 -10z"/>
<path d="M4822 6559 c2 -6 8 -10 13 -10 5 0 11 4 13 10 2 6 -4 11 -13 11 -9 0
-15 -5 -13 -11z"/>
<path d="M4833 6395 c0 -8 4 -12 9 -9 4 3 8 9 8 15 0 5 -4 9 -8 9 -5 0 -9 -7
-9 -15z"/>
<path d="M9354 6372 c3 -6 1 -14 -5 -18 -8 -4 -7 -9 2 -15 20 -12 26 -11 33 6
3 9 -3 19 -16 26 -13 7 -18 7 -14 1z m26 -16 c0 -3 -4 -8 -10 -11 -5 -3 -10
-1 -10 4 0 6 5 11 10 11 6 0 10 -2 10 -4z"/>
<path d="M4830 6301 c0 -6 4 -13 10 -16 6 -3 7 1 4 9 -7 18 -14 21 -14 7z"/>
<path d="M4804 6260 c0 -16 2 -28 4 -25 9 8 11 55 3 55 -4 0 -7 -13 -7 -30z"/>
<path d="M5749 6263 c-13 -16 -12 -17 4 -4 16 13 21 21 13 21 -2 0 -10 -8 -17
-17z"/>
<path d="M9375 6180 c3 -5 8 -10 11 -10 2 0 4 5 4 10 0 6 -5 10 -11 10 -5 0
-7 -4 -4 -10z"/>
<path d="M5379 6128 c-8 -27 -6 -38 5 -29 7 6 17 7 22 3 4 -4 2 1 -5 11 -12
16 -20 21 -22 15z"/>
<path d="M9370 6126 c0 -2 7 -7 16 -10 8 -3 12 -2 9 4 -6 10 -25 14 -25 6z"/>
<path d="M5295 6110 c-3 -6 1 -7 9 -4 18 7 21 14 7 14 -6 0 -13 -4 -16 -10z"/>
<path d="M4706 6076 c-11 -18 -13 -27 -4 -32 7 -4 8 -3 4 4 -4 7 -1 12 6 12 8
0 14 9 15 20 2 26 -1 25 -21 -4z"/>
<path d="M3537 6037 c-12 -19 -13 -24 -2 -24 8 0 13 5 12 11 -1 6 3 10 9 9 6
-1 11 5 11 13 0 21 -13 17 -30 -9z"/>
<path d="M9376 6013 c-6 -14 -5 -15 5 -6 7 7 10 15 7 18 -3 3 -9 -2 -12 -12z"/>
<path d="M4635 5940 c3 -5 8 -10 11 -10 2 0 4 5 4 10 0 6 -5 10 -11 10 -5 0
-7 -4 -4 -10z"/>
<path d="M4596 5901 c-3 -5 1 -11 9 -14 9 -4 12 -1 8 9 -6 16 -10 17 -17 5z"/>
<path d="M9355 5860 c3 -5 8 -10 11 -10 2 0 4 5 4 10 0 6 -5 10 -11 10 -5 0
-7 -4 -4 -10z"/>
<path d="M3310 5822 c0 -7 -1 -15 -2 -19 -2 -3 5 -7 15 -9 15 -2 16 0 5 14 -7
9 -14 19 -15 21 -2 2 -3 -1 -3 -7z"/>
<path d="M3255 5740 c-3 -5 -1 -10 4 -10 6 0 11 5 11 10 0 6 -2 10 -4 10 -3 0
-8 -4 -11 -10z"/>
<path d="M4330 5546 c-5 -5 -10 -15 -10 -20 0 -6 5 -3 11 7 8 13 14 15 23 8 9
-8 13 -7 13 2 0 16 -22 18 -37 3z"/>
<path d="M3100 5520 c-9 -6 -10 -10 -3 -10 6 0 15 5 18 10 8 12 4 12 -15 0z"/>
<path d="M4267 5474 c-3 -3 -3 -13 0 -22 4 -10 2 -13 -5 -8 -7 4 -12 2 -12 -4
0 -7 6 -10 13 -7 6 2 12 10 12 18 0 8 5 17 10 21 6 5 6 8 -1 8 -6 0 -13 -3
-17 -6z"/>
<path d="M4206 5412 c-3 -5 1 -9 9 -9 8 0 12 4 9 9 -3 4 -7 8 -9 8 -2 0 -6 -4
-9 -8z"/>
<path d="M2955 5340 c-4 -6 3 -10 14 -10 25 0 27 6 6 13 -8 4 -17 2 -20 -3z"/>
<path d="M4175 5340 c-3 -5 -1 -10 4 -10 6 0 11 5 11 10 0 6 -2 10 -4 10 -3 0
-8 -4 -11 -10z"/>
<path d="M9190 5319 c0 -5 5 -7 10 -4 6 3 10 8 10 11 0 2 -4 4 -10 4 -5 0 -10
-5 -10 -11z"/>
<path d="M2580 5300 c-12 -7 -10 -9 7 -7 12 0 19 5 17 9 -6 10 -6 10 -24 -2z"/>
<path d="M4130 5299 c0 -5 5 -7 10 -4 6 3 10 8 10 11 0 2 -4 4 -10 4 -5 0 -10
-5 -10 -11z"/>
<path d="M2876 5278 c3 -5 10 -6 15 -3 13 9 11 12 -6 12 -8 0 -12 -4 -9 -9z"/>
<path d="M2680 5260 c-9 -6 -10 -10 -3 -10 6 0 15 5 18 10 8 12 4 12 -15 0z"/>
<path d="M9084 5148 c-4 -7 -4 -10 1 -6 4 4 16 3 26 -3 11 -5 19 -7 19 -5 0 3
-9 10 -19 16 -15 7 -22 7 -27 -2z"/>
<path d="M3895 5081 c-3 -5 -2 -12 3 -15 5 -3 9 1 9 9 0 17 -3 19 -12 6z"/>
<path d="M8954 4948 c-14 -22 -13 -37 4 -50 15 -11 15 -11 4 4 -10 13 -10 17
0 21 9 4 9 6 -2 6 -13 1 -13 2 0 11 8 5 12 12 8 15 -3 4 -10 0 -14 -7z"/>
<path d="M3752 4923 c-15 -27 -15 -45 -1 -20 6 9 14 15 19 12 5 -3 12 0 16 6
4 7 3 9 -4 5 -5 -3 -12 0 -14 6 -3 8 -9 5 -16 -9z"/>
<path d="M8905 4870 c-4 -6 -3 -10 1 -10 4 0 -1 -7 -12 -15 -10 -8 -15 -15
-11 -15 5 0 20 9 33 19 19 15 21 20 9 24 -8 4 -17 2 -20 -3z"/>
<path d="M3630 4779 c0 -5 5 -7 10 -4 6 3 10 8 10 11 0 2 -4 4 -10 4 -5 0 -10
-5 -10 -11z"/>
<path d="M3470 4619 c0 -5 5 -7 10 -4 6 3 10 8 10 11 0 2 -4 4 -10 4 -5 0 -10
-5 -10 -11z"/>
<path d="M3370 4519 c0 -5 5 -7 10 -4 6 3 10 8 10 11 0 2 -4 4 -10 4 -5 0 -10
-5 -10 -11z"/>
<path d="M3345 4509 c-4 -6 -5 -12 -2 -15 2 -3 7 2 10 11 7 17 1 20 -8 4z"/>
<path d="M3277 4453 c-4 -3 -7 -11 -7 -17 0 -6 5 -5 12 2 6 6 9 14 7 17 -3 3
-9 2 -12 -2z"/>
<path d="M8467 4369 c7 -7 15 -10 18 -7 3 3 -2 9 -12 12 -14 6 -15 5 -6 -5z"/>
<path d="M3146 4325 c4 -8 11 -15 16 -15 6 0 5 6 -2 15 -7 8 -14 15 -16 15 -2
0 -1 -7 2 -15z"/>
<path d="M8390 4299 c0 -5 5 -7 10 -4 6 3 10 8 10 11 0 2 -4 4 -10 4 -5 0 -10
-5 -10 -11z"/>
<path d="M8345 4269 c-4 -6 -5 -12 -2 -15 2 -3 7 2 10 11 7 17 1 20 -8 4z"/>
<path d="M3055 4230 c-4 -6 -10 -8 -15 -5 -11 7 -20 -19 -10 -34 5 -9 10 -10
14 -2 4 6 1 11 -6 11 -10 0 -9 3 2 9 8 6 17 8 20 6 4 -2 7 2 7 10 0 18 -3 19
-12 5z"/>
<path d="M2925 4080 c-3 -6 1 -7 9 -4 18 7 21 14 7 14 -6 0 -13 -4 -16 -10z"/>
<path d="M7615 3740 c-3 -5 -1 -10 4 -10 6 0 11 5 11 10 0 6 -2 10 -4 10 -3 0
-8 -4 -11 -10z"/>
<path d="M3767 3620 c10 -11 19 -20 21 -20 1 0 -2 9 -8 20 -6 11 -15 20 -20
20 -6 0 -2 -9 7 -20z"/>
<path d="M7336 3617 c-16 -12 -16 -14 -3 -14 9 0 18 6 21 14 3 7 4 13 3 13 -2
0 -11 -6 -21 -13z"/>
<path d="M3755 3590 c-3 -5 -1 -10 4 -10 6 0 11 5 11 10 0 6 -2 10 -4 10 -3 0
-8 -4 -11 -10z"/>
<path d="M3769 3508 c-7 -24 -4 -38 8 -43 9 -3 18 -3 21 0 3 3 0 5 -7 5 -8 0
-10 7 -6 20 4 11 2 20 -4 20 -6 0 -11 -1 -12 -2z"/>
<path d="M3791 3434 c0 -11 3 -14 6 -6 3 7 2 16 -1 19 -3 4 -6 -2 -5 -13z"/>
<path d="M6840 3400 c-9 -6 -10 -10 -3 -10 6 0 15 5 18 10 8 12 4 12 -15 0z"/>
<path d="M6750 3362 c0 -5 7 -9 15 -9 8 0 12 4 9 9 -3 4 -9 8 -15 8 -5 0 -9
-4 -9 -8z"/>
<path d="M3747 3331 c6 -7 9 -20 6 -27 -3 -8 -3 -14 0 -14 14 0 14 30 -1 41
-14 11 -15 11 -5 0z"/>
<path d="M6550 3300 c0 -5 5 -10 10 -10 6 0 10 5 10 10 0 6 -4 10 -10 10 -5 0
-10 -4 -10 -10z"/>
<path d="M6476 3285 c4 -8 8 -15 10 -15 2 0 4 7 4 15 0 8 -4 15 -10 15 -5 0
-7 -7 -4 -15z"/>
<path d="M3665 3270 c-13 -21 -15 -41 -4 -34 5 3 6 10 3 16 -5 7 -1 9 9 5 9
-3 19 -1 23 5 4 6 3 8 -4 4 -5 -3 -12 -1 -14 6 -3 9 -7 8 -13 -2z"/>
<path d="M6375 3270 c-3 -5 -1 -10 4 -10 6 0 11 5 11 10 0 6 -2 10 -4 10 -3 0
-8 -4 -11 -10z"/>
<path d="M3523 3243 c-7 -2 -13 -9 -13 -15 0 -7 5 -7 13 1 8 6 17 8 20 4 4 -3
7 -1 7 5 0 13 -7 14 -27 5z"/>
<path d="M6034 3208 c-4 -7 -3 -8 4 -4 7 4 12 0 13 -11 0 -11 3 -13 6 -5 2 6
9 10 13 7 5 -3 12 0 16 7 4 7 4 10 -1 6 -4 -4 -16 -3 -26 2 -12 7 -20 6 -25
-2z"/>
<path d="M6123 3203 c0 -9 4 -10 14 -2 7 6 13 12 13 14 0 1 -6 2 -13 2 -8 0
-14 -6 -14 -14z"/>
<path d="M5057 3191 c-10 -14 -10 -14 4 -4 9 7 18 10 21 7 3 -3 8 -1 12 4 9
16 -24 9 -37 -7z"/>
<path d="M5115 3199 c-4 -6 -5 -12 -2 -15 2 -3 7 2 10 11 7 17 1 20 -8 4z"/>
<path d="M5910 3179 c0 -5 5 -7 10 -4 6 3 10 8 10 11 0 2 -4 4 -10 4 -5 0 -10
-5 -10 -11z"/>
<path d="M2980 3175 c0 -2 6 -8 13 -14 10 -8 14 -7 14 2 0 8 -6 14 -14 14 -7
0 -13 -1 -13 -2z"/>
<path d="M5696 3173 c-13 -13 -5 -21 19 -19 14 0 25 2 25 3 0 7 -38 21 -44 16z"/>
<path d="M5254 3159 c-4 -7 -3 -9 4 -5 5 3 13 0 15 -6 4 -9 6 -10 6 -1 1 17
-16 25 -25 12z"/>
<path d="M5870 3159 c0 -5 5 -7 10 -4 6 3 10 8 10 11 0 2 -4 4 -10 4 -5 0 -10
-5 -10 -11z"/>
<path d="M1730 3145 c-11 -13 -10 -14 4 -9 9 3 16 10 16 15 0 13 -6 11 -20 -6z"/>
<path d="M2260 3127 c0 -7 9 -13 20 -14 11 -1 20 0 20 2 0 2 -9 9 -20 15 -15
8 -20 8 -20 -3z"/>
<path d="M2070 3105 c0 -5 5 -17 10 -25 5 -8 10 -10 10 -5 0 6 -5 17 -10 25
-5 8 -10 11 -10 5z"/>
<path d="M1954 3089 c-4 -7 -3 -9 4 -5 5 3 12 0 15 -6 2 -7 7 -10 11 -7 4 3 0
12 -8 18 -11 9 -16 9 -22 0z"/>
</g>
</svg>
